
#
# object Tertiary_Road_4m
#

v  1.9941 0.0000 -2.1654
v  -2.0059 0.0000 -0.0020
v  -2.0059 0.0000 -2.1654
v  1.9941 0.0000 -0.0020
v  -2.0059 0.0000 2.1838
v  1.9941 0.0000 2.1838
# 6 vertices

vn 0.0000 1.0000 -0.0000
vn 0.0000 1.0000 -0.0000
vn 0.0000 1.0000 -0.0000
vn 0.0000 1.0000 -0.0000
vn 0.0000 1.0000 -0.0000
vn 0.0000 1.0000 -0.0000
vn 0.0000 1.0000 -0.0000
vn 0.0000 1.0000 -0.0000
vn 0.0000 1.0000 -0.0000
vn 0.0000 1.0000 -0.0000
vn 0.0000 1.0000 -0.0000
vn 0.0000 1.0000 -0.0000
# 12 vertex normals

vt 0.0000 0.0000 0.0000
vt 1.0000 0.5000 0.0000
vt 1.0000 0.0000 0.0000
vt 0.0000 0.5000 0.0000
vt 1.0000 1.0002 0.0000
vt 0.0000 1.0002 0.0000
# 6 texture coords

g Tertiary_Road_4m
s 1
f 2/2/1 1/1/2 3/3/3 
f 2/2/4 4/4/5 1/1/6 
f 5/5/7 4/4/8 2/2/9 
f 5/5/10 6/6/11 4/4/12 
# 0 polygons - 4 triangles

#
# object dirt_swamp
#

v  -3.4771 0.0000 -2.2368
v  -3.4771 0.0000 2.2536
v  -1.9925 0.0000 -2.0924
v  -1.9925 0.0000 2.1092
# 4 vertices

vn 0.0000 1.0000 -0.0000
vn 0.0000 1.0000 -0.0000
vn 0.0000 1.0000 -0.0000
vn 0.0000 1.0000 -0.0000
vn 0.0000 1.0000 -0.0000
vn 0.0000 1.0000 -0.0000
# 6 vertex normals

vt 0.0000 0.0000 0.0000
vt 1.0000 0.0000 0.0000
vt 0.0000 1.0000 0.0000
vt 1.0000 1.0000 0.0000
# 4 texture coords

g dirt_swamp
s off
f 9/9/13 8/8/14 10/10/15 
f 8/8/16 9/9/17 7/7/18 
# 0 polygons - 2 triangles

