#
# object Tertiary_Road_4m
#

v  -1.9941 0.0000 2.1654
v  2.0059 0.0000 0.0020
v  2.0059 0.0000 2.1654
v  -1.9941 0.0000 0.0020
v  2.0059 0.0000 -2.1838
v  -1.9941 0.0000 -2.1838
# 6 vertices

vn 0.0000 1.0000 -0.0000
vn 0.0000 1.0000 -0.0000
vn 0.0000 1.0000 -0.0000
vn 0.0000 1.0000 -0.0000
vn 0.0000 1.0000 -0.0000
vn 0.0000 1.0000 -0.0000
vn 0.0000 1.0000 -0.0000
vn 0.0000 1.0000 -0.0000
vn 0.0000 1.0000 -0.0000
vn 0.0000 1.0000 -0.0000
vn 0.0000 1.0000 -0.0000
vn 0.0000 1.0000 -0.0000
# 12 vertex normals

vt 0.0000 0.0000 0.0000
vt 1.0000 0.5000 0.0000
vt 1.0000 0.0000 0.0000
vt 0.0000 0.5000 0.0000
vt 1.0000 1.0002 0.0000
vt 0.0000 1.0002 0.0000
# 6 texture coords

g Tertiary_Road_4m
s 1
f 2/2/1 1/1/2 3/3/3 
f 2/2/4 4/4/5 1/1/6 
f 5/5/7 4/4/8 2/2/9 
f 5/5/10 6/6/11 4/4/12 
# 0 polygons - 4 triangles

#
# object dirt_swamp
#

v  -3.4771 0.0000 -2.2368
v  -3.4771 0.0000 -1.8286
v  -3.4771 0.0000 -1.4590
v  -3.4771 0.0000 -1.1918
v  -3.4771 0.0000 -0.4355
v  -3.4771 0.0000 -0.1957
v  -3.4771 0.0000 0.2125
v  -3.4771 0.0000 0.4523
v  -3.4771 0.0000 1.2086
v  -3.4771 0.0000 1.4758
v  -3.4771 0.0000 1.8454
v  -3.4771 0.0000 2.2536
v  -3.1059 0.0000 -2.1789
v  -3.1059 0.0000 -1.4213
v  -3.1059 0.0000 -0.4241
v  -3.1059 0.0000 0.4409
v  -3.1059 0.0000 1.4381
v  -3.1059 0.0000 2.1957
v  -2.7348 0.0000 -2.1630
v  -2.7348 0.0000 -1.4109
v  -2.7348 0.0000 -0.4210
v  -2.7348 0.0000 0.4378
v  -2.7348 0.0000 1.4277
v  -2.7348 0.0000 2.1798
v  -2.3637 0.0000 -2.1220
v  -2.3637 0.0000 -1.3841
v  -2.3637 0.0000 -0.4129
v  -2.3637 0.0000 0.4297
v  -2.3637 0.0000 1.4009
v  -2.3637 0.0000 2.1388
v  -1.9925 0.0000 -2.0924
v  -1.9925 0.0000 -1.3647
v  -1.9925 0.0000 -0.4070
v  -1.9925 0.0000 0.4238
v  -1.9925 0.0000 1.3815
v  -1.9925 0.0000 2.1092
# 36 vertices

vn 0.0000 1.0000 -0.0000
vn 0.0000 1.0000 -0.0000
vn 0.0000 1.0000 -0.0000
vn 0.0000 1.0000 -0.0000
vn 0.0000 1.0000 -0.0000
vn 0.0000 1.0000 -0.0000
vn 0.0000 1.0000 -0.0000
vn 0.0000 1.0000 -0.0000
vn 0.0000 1.0000 -0.0000
vn 0.0000 1.0000 -0.0000
vn 0.0000 1.0000 -0.0000
vn 0.0000 1.0000 -0.0000
vn 0.0000 1.0000 -0.0000
vn 0.0000 1.0000 -0.0000
vn 0.0000 1.0000 -0.0000
vn 0.0000 1.0000 -0.0000
vn 0.0000 1.0000 -0.0000
vn 0.0000 1.0000 -0.0000
vn 0.0000 1.0000 -0.0000
vn 0.0000 1.0000 -0.0000
vn 0.0000 1.0000 -0.0000
vn 0.0000 1.0000 -0.0000
vn 0.0000 1.0000 -0.0000
vn 0.0000 1.0000 -0.0000
vn 0.0000 1.0000 -0.0000
vn 0.0000 1.0000 -0.0000
vn 0.0000 1.0000 -0.0000
vn 0.0000 1.0000 -0.0000
vn 0.0000 1.0000 -0.0000
vn 0.0000 1.0000 -0.0000
vn 0.0000 1.0000 -0.0000
vn 0.0000 1.0000 -0.0000
vn 0.0000 1.0000 -0.0000
vn 0.0000 1.0000 -0.0000
vn 0.0000 1.0000 -0.0000
vn 0.0000 1.0000 -0.0000
vn 0.0000 1.0000 -0.0000
vn 0.0000 1.0000 -0.0000
vn 0.0000 1.0000 -0.0000
vn 0.0000 1.0000 -0.0000
vn 0.0000 1.0000 -0.0000
vn 0.0000 1.0000 -0.0000
vn 0.0000 1.0000 -0.0000
vn 0.0000 1.0000 -0.0000
vn 0.0000 1.0000 -0.0000
vn 0.0000 1.0000 -0.0000
vn 0.0000 1.0000 -0.0000
vn 0.0000 1.0000 -0.0000
vn 0.0000 1.0000 -0.0000
vn 0.0000 1.0000 -0.0000
vn 0.0000 1.0000 -0.0000
vn 0.0000 1.0000 -0.0000
vn 0.0000 1.0000 -0.0000
vn 0.0000 1.0000 -0.0000
vn 0.0000 1.0000 -0.0000
vn 0.0000 1.0000 -0.0000
vn 0.0000 1.0000 -0.0000
vn 0.0000 1.0000 -0.0000
vn 0.0000 1.0000 -0.0000
vn 0.0000 1.0000 -0.0000
vn 0.0000 1.0000 -0.0000
vn 0.0000 1.0000 -0.0000
vn 0.0000 1.0000 -0.0000
vn 0.0000 1.0000 -0.0000
vn 0.0000 1.0000 -0.0000
vn 0.0000 1.0000 -0.0000
vn 0.0000 1.0000 -0.0000
vn 0.0000 1.0000 -0.0000
vn 0.0000 1.0000 -0.0000
vn 0.0000 1.0000 -0.0000
vn 0.0000 1.0000 -0.0000
vn 0.0000 1.0000 -0.0000
vn 0.0000 1.0000 -0.0000
vn 0.0000 1.0000 -0.0000
vn 0.0000 1.0000 -0.0000
vn 0.0000 1.0000 -0.0000
vn 0.0000 1.0000 -0.0000
vn 0.0000 1.0000 -0.0000
vn 0.0000 1.0000 -0.0000
vn 0.0000 1.0000 -0.0000
vn 0.0000 1.0000 -0.0000
vn 0.0000 1.0000 -0.0000
vn 0.0000 1.0000 -0.0000
vn 0.0000 1.0000 -0.0000
vn 0.0000 1.0000 -0.0000
vn 0.0000 1.0000 -0.0000
vn 0.0000 1.0000 -0.0000
vn 0.0000 1.0000 -0.0000
vn 0.0000 1.0000 -0.0000
vn 0.0000 1.0000 -0.0000
vn 0.0000 1.0000 -0.0000
vn 0.0000 1.0000 -0.0000
vn 0.0000 1.0000 -0.0000
vn 0.0000 1.0000 -0.0000
vn 0.0000 1.0000 -0.0000
vn 0.0000 1.0000 -0.0000
vn 0.0000 1.0000 -0.0000
vn 0.0000 1.0000 -0.0000
vn 0.0000 1.0000 -0.0000
vn 0.0000 1.0000 -0.0000
vn 0.0000 1.0000 -0.0000
vn 0.0000 1.0000 -0.0000
vn 0.0000 1.0000 -0.0000
vn 0.0000 1.0000 -0.0000
vn 0.0000 1.0000 -0.0000
vn 0.0000 1.0000 -0.0000
vn 0.0000 1.0000 -0.0000
vn 0.0000 1.0000 -0.0000
vn 0.0000 1.0000 -0.0000
vn 0.0000 1.0000 -0.0000
vn 0.0000 1.0000 -0.0000
vn 0.0000 1.0000 -0.0000
vn 0.0000 1.0000 -0.0000
vn 0.0000 1.0000 -0.0000
vn 0.0000 1.0000 -0.0000
vn 0.0000 1.0000 -0.0000
vn 0.0000 1.0000 -0.0000
vn 0.0000 1.0000 -0.0000
vn 0.0000 1.0000 -0.0000
vn 0.0000 1.0000 -0.0000
vn 0.0000 1.0000 -0.0000
vn 0.0000 1.0000 -0.0000
vn 0.0000 1.0000 -0.0000
vn 0.0000 1.0000 -0.0000
vn 0.0000 1.0000 -0.0000
vn 0.0000 1.0000 -0.0000
vn 0.0000 1.0000 -0.0000
vn 0.0000 1.0000 -0.0000
vn 0.0000 1.0000 -0.0000
vn 0.0000 1.0000 -0.0000
vn 0.0000 1.0000 -0.0000
vn 0.0000 1.0000 -0.0000
vn 0.0000 1.0000 -0.0000
vn 0.0000 1.0000 -0.0000
vn 0.0000 1.0000 -0.0000
vn 0.0000 1.0000 -0.0000
vn 0.0000 1.0000 -0.0000
vn 0.0000 1.0000 -0.0000
# 138 vertex normals

vt 0.0000 0.0000 0.0000
vt 0.0909 0.0000 0.0000
vt 0.1732 0.0001 0.0000
vt 0.2329 0.0003 0.0000
vt 0.4009 -0.0000 0.0000
vt 0.4545 0.0000 0.0000
vt 0.5455 0.0000 0.0000
vt 0.5989 -0.0004 0.0000
vt 0.7671 0.0005 0.0000
vt 0.8268 0.0001 0.0000
vt 0.9091 0.0000 0.0000
vt 1.0000 0.0000 0.0000
vt 0.0000 0.2500 0.0000
vt 0.1732 0.2503 0.0000
vt 0.4010 0.2494 0.0000
vt 0.5986 0.2498 0.0000
vt 0.8268 0.2502 0.0000
vt 1.0000 0.2500 0.0000
vt 0.0000 0.5000 0.0000
vt 0.1731 0.5005 0.0000
vt 0.4016 0.4986 0.0000
vt 0.5986 0.4998 0.0000
vt 0.8269 0.5002 0.0000
vt 1.0000 0.5000 0.0000
vt 0.0000 0.7500 0.0000
vt 0.1729 0.7509 0.0000
vt 0.4022 0.7476 0.0000
vt 0.5980 0.7500 0.0000
vt 0.8270 0.7503 0.0000
vt 1.0000 0.7500 0.0000
vt 0.0000 1.0000 0.0000
vt 0.1724 1.0013 0.0000
vt 0.4046 0.9968 0.0000
vt 0.5956 1.0009 0.0000
vt 0.8275 1.0003 0.0000
vt 1.0000 1.0000 0.0000
# 36 texture coords

g dirt_swamp
s 1
f 9/9/13 20/20/14 8/8/15 
f 11/11/16 21/21/17 10/10/18 
f 14/14/19 22/22/20 13/13/21 
f 16/16/22 23/23/23 15/15/24 
f 18/18/25 24/24/26 17/17/27 
f 32/32/28 38/38/29 37/37/30 
f 32/32/31 37/37/32 31/31/33 
f 33/33/34 39/39/35 38/38/36 
f 33/33/37 38/38/38 32/32/39 
f 34/34/40 40/40/41 39/39/42 
f 34/34/43 39/39/44 33/33/45 
f 35/35/46 41/41/47 40/40/48 
f 35/35/49 40/40/50 34/34/51 
f 36/36/52 42/42/53 41/41/54 
f 36/36/55 41/41/56 35/35/57 
f 26/26/58 32/32/59 31/31/60 
f 26/26/61 31/31/62 25/25/63 
f 27/27/64 33/33/65 32/32/66 
f 27/27/67 32/32/68 26/26/69 
f 28/28/70 34/34/71 33/33/72 
f 28/28/73 33/33/74 27/27/75 
f 29/29/76 35/35/77 34/34/78 
f 29/29/79 34/34/80 28/28/81 
f 30/30/82 36/36/83 35/35/84 
f 30/30/85 35/35/86 29/29/87 
f 20/20/88 26/26/89 25/25/90 
f 20/20/91 25/25/92 19/19/93 
f 21/21/94 27/27/95 26/26/96 
f 21/21/97 26/26/98 20/20/99 
f 22/22/100 28/28/101 27/27/102 
f 22/22/103 27/27/104 21/21/105 
f 23/23/106 29/29/107 28/28/108 
f 23/23/109 28/28/110 22/22/111 
f 24/24/112 30/30/113 29/29/114 
f 24/24/115 29/29/116 23/23/117 
f 8/8/118 20/20/119 19/19/120 
f 8/8/121 19/19/122 7/7/123 
f 10/10/124 21/21/125 20/20/126 
f 11/11/127 22/22/128 21/21/129 
f 11/11/130 12/12/131 22/22/132 
f 12/12/133 13/13/134 22/22/135 
f 14/14/136 15/15/137 22/22/138 
f 15/15/139 23/23/140 22/22/141 
f 16/16/142 17/17/143 23/23/144 
f 17/17/145 24/24/146 23/23/147 
f 10/10/148 20/20/149 9/9/150 
# 0 polygons - 46 triangles

