#
# object parkingSeperator
#

v  -27.8125 5.5078 27.9457
v  27.8905 5.5078 28.0027
v  -27.4698 5.9114 27.6201
v  27.5649 5.9114 27.6600
v  -22.2310 5.9114 22.3956
v  23.1729 5.9114 22.4212
v  -21.9154 5.5078 22.0494
v  21.9942 5.5078 22.1056
v  -27.8125 0.0031 27.9457
v  27.8905 0.0031 28.0027
v  21.9942 3.2415 22.1056
v  -21.9154 3.2415 22.0494
v  -27.8652 5.5078 -27.6774
v  -27.5396 5.9114 -27.3347
v  -22.3151 5.9114 -22.0959
v  -21.9689 5.5078 -21.7803
v  -27.8652 0.0031 -27.6774
v  -21.9689 3.2415 -21.7803
v  27.8378 5.5078 -27.6204
v  27.4951 5.9114 -27.2948
v  22.2563 5.9114 -22.0703
v  21.9407 5.5078 -21.7241
v  27.7716 0.0031 -27.6281
v  21.9407 3.2415 -21.7241
v  27.9039 0.0031 -27.6127
# 25 vertices

vn -0.6581 0.3995 0.6382
vn 0.6572 0.3971 0.6406
vn 0.2554 0.9042 0.3423
vn -0.2434 0.9024 0.3555
vn -0.2434 0.9024 0.3555
vn 0.2554 0.9042 0.3423
vn -0.0496 0.9981 -0.0353
vn 0.1124 0.9882 -0.1045
vn 0.1124 0.9882 -0.1045
vn -0.0496 0.9981 -0.0353
vn -0.3548 0.6276 -0.6930
vn 0.5416 0.5717 -0.6163
vn -0.7068 -0.0000 0.7074
vn 0.7073 0.0008 0.7069
vn 0.6572 0.3971 0.6406
vn -0.6581 0.3995 0.6382
vn -0.7075 -0.0000 -0.7068
vn 0.7068 -0.0000 -0.7075
vn 0.5416 0.5717 -0.6163
vn -0.3548 0.6276 -0.6930
vn -0.6573 0.3971 -0.6405
vn -0.6581 0.3995 0.6382
vn -0.2434 0.9024 0.3555
vn -0.2554 0.9042 -0.3423
vn -0.2554 0.9042 -0.3423
vn -0.2434 0.9024 0.3555
vn 0.1124 0.9882 -0.1045
vn 0.1120 0.9887 0.0995
vn 0.1120 0.9887 0.0995
vn 0.1124 0.9882 -0.1045
vn 0.5416 0.5717 -0.6163
vn 0.5220 0.5670 0.6372
vn -0.7074 0.0000 -0.7068
vn -0.7068 -0.0000 0.7074
vn -0.6581 0.3995 0.6382
vn -0.6573 0.3971 -0.6405
vn 0.7068 -0.0000 -0.7075
vn 0.7075 -0.0000 0.7068
vn 0.5220 0.5670 0.6372
vn 0.5416 0.5717 -0.6163
vn 0.6582 0.4082 -0.6326
vn -0.6573 0.3971 -0.6405
vn -0.2554 0.9042 -0.3423
vn 0.2434 0.9024 -0.3555
vn 0.2434 0.9024 -0.3555
vn -0.2554 0.9042 -0.3423
vn 0.1120 0.9887 0.0995
vn -0.1133 0.9877 0.1077
vn -0.1133 0.9877 0.1077
vn 0.1120 0.9887 0.0995
vn 0.5220 0.5670 0.6372
vn -0.5340 0.5741 0.6207
vn 0.0007 0.0013 -1.0000
vn -0.7074 0.0000 -0.7068
vn -0.6573 0.3971 -0.6405
vn 0.6582 0.4082 -0.6326
vn 0.7075 -0.0000 0.7068
vn -0.7068 -0.0000 0.7075
vn -0.5340 0.5741 0.6207
vn 0.5220 0.5670 0.6372
vn 0.6572 0.3971 0.6406
vn 0.6582 0.4082 -0.6326
vn 0.2434 0.9024 -0.3555
vn 0.2554 0.9042 0.3423
vn 0.2554 0.9042 0.3423
vn 0.2434 0.9024 -0.3555
vn -0.1133 0.9877 0.1077
vn -0.0496 0.9981 -0.0353
vn -0.0496 0.9981 -0.0353
vn -0.1133 0.9877 0.1077
vn -0.5340 0.5741 0.6207
vn -0.3548 0.6276 -0.6930
vn 0.7073 0.0008 0.7069
vn 0.9998 0.0180 0.0004
vn 0.6582 0.4082 -0.6326
vn 0.6572 0.3971 0.6406
vn -0.7068 -0.0000 0.7075
vn -0.7075 -0.0000 -0.7068
vn -0.3548 0.6276 -0.6930
vn -0.5340 0.5741 0.6207
# 80 vertex normals

vt -0.0030 0.0866 1.3195
vt 0.9960 0.0866 1.3195
vt 0.9927 0.0942 1.3332
vt -0.0003 0.0942 1.3332
vt 0.9014 0.1928 1.3332
vt 0.0965 0.1922 1.3332
vt 0.8985 0.2005 1.3195
vt 0.0997 0.2004 1.3195
vt -0.0030 0.0016 1.4124
vt 0.9960 0.0016 1.4124
vt 0.8984 0.2551 1.4124
vt 0.0996 0.2550 1.4124
vt -0.0030 0.0866 1.3195
vt 0.9960 0.0866 1.3195
vt 0.9927 0.0942 1.3332
vt -0.0003 0.0942 1.3332
vt 0.9014 0.1928 1.3332
vt 0.0965 0.1922 1.3332
vt 0.8985 0.2005 1.3195
vt 0.0997 0.2004 1.3195
vt -0.0030 0.0016 1.4124
vt 0.9960 0.0016 1.4124
vt 0.8984 0.2551 1.4124
vt 0.0996 0.2550 1.4124
vt -0.0030 0.0866 1.3195
vt 0.9960 0.0866 1.3195
vt 0.9927 0.0942 1.3332
vt -0.0003 0.0942 1.3332
vt 0.9014 0.1928 1.3332
vt 0.0965 0.1922 1.3332
vt 0.8985 0.2005 1.3195
vt 0.0997 0.2004 1.3195
vt -0.0030 0.0016 1.4124
vt 0.9960 0.0016 1.4124
vt 0.8984 0.2551 1.4124
vt 0.0996 0.2550 1.4124
vt -0.0030 0.0866 1.3195
vt 0.9960 0.0866 1.3195
vt 0.9927 0.0942 1.3332
vt -0.0003 0.0942 1.3332
vt 0.9014 0.1928 1.3332
vt 0.0965 0.1922 1.3332
vt 0.8985 0.2005 1.3195
vt 0.0997 0.2004 1.3195
vt -0.0030 0.0016 1.4124
vt 0.9960 0.0016 1.4124
vt 0.8984 0.2551 1.4124
vt 0.0996 0.2550 1.4124
# 48 texture coords

g parkingSeperator
s 1
f 1/1/1 2/2/2 4/3/3 3/4/4 
f 3/4/5 4/3/6 6/5/7 5/6/8 
f 5/6/9 6/5/10 8/7/11 7/8/12 
f 9/9/13 10/10/14 2/2/15 1/1/16 
f 11/11/17 12/12/18 7/8/19 8/7/20 
f 13/13/21 1/14/22 3/15/23 14/16/24 
f 14/16/25 3/15/26 5/17/27 15/18/28 
f 15/18/29 5/17/30 7/19/31 16/20/32 
f 17/21/33 9/22/34 1/14/35 13/13/36 
f 12/23/37 18/24/38 16/20/39 7/19/40 
f 19/25/41 13/26/42 14/27/43 20/28/44 
f 20/28/45 14/27/46 15/29/47 21/30/48 
f 21/30/49 15/29/50 16/31/51 22/32/52 
f 23/33/53 17/34/54 13/26/55 19/25/56 
f 18/35/57 24/36/58 22/32/59 16/31/60 
f 2/37/61 19/38/62 20/39/63 4/40/64 
f 4/40/65 20/39/66 21/41/67 6/42/68 
f 6/42/69 21/41/70 22/43/71 8/44/72 
f 10/45/73 25/46/74 19/38/75 2/37/76 
f 24/47/77 11/48/78 8/44/79 22/43/80 
# 20 polygons

#
# object parkingSeperator
#

v  -22.6613 3.7050 22.7734
v  -7.6000 3.7050 22.7734
v  7.4613 3.7050 22.7734
v  22.5226 3.7050 22.7734
v  -22.6613 3.7050 7.5826
v  -7.6000 5.0378 7.5826
v  7.4613 5.0378 7.5826
v  22.5226 3.7050 7.5826
v  -22.6613 3.7050 -7.6082
v  -7.6000 5.0378 -7.6082
v  7.4613 5.0378 -7.6082
v  22.5226 3.7050 -7.6082
v  -22.6613 3.7050 -22.7989
v  -7.6000 3.7050 -22.7989
v  7.4613 3.7050 -22.7989
v  22.5226 3.7050 -22.7989
# 16 vertices

vn -0.0951 0.9955 -0.0000
vn -0.0519 0.9974 0.0499
vn 0.0000 0.9940 0.1093
vn -0.0347 0.9985 0.0423
vn -0.0347 0.9985 0.0423
vn 0.0000 0.9940 0.1093
vn 0.0259 0.9961 0.0845
vn 0.0475 0.9974 0.0546
vn 0.0475 0.9974 0.0546
vn 0.0259 0.9961 0.0845
vn 0.0000 1.0000 -0.0000
vn 0.0692 0.9973 0.0250
vn -0.0692 0.9973 -0.0250
vn -0.0951 0.9955 -0.0000
vn -0.0347 0.9985 0.0423
vn -0.0475 0.9974 -0.0546
vn -0.0475 0.9974 -0.0546
vn -0.0347 0.9985 0.0423
vn 0.0475 0.9974 0.0546
vn 0.0347 0.9985 -0.0423
vn 0.0347 0.9985 -0.0423
vn 0.0475 0.9974 0.0546
vn 0.0692 0.9973 0.0250
vn 0.0951 0.9955 -0.0000
vn 0.0000 1.0000 -0.0000
vn -0.0692 0.9973 -0.0250
vn -0.0475 0.9974 -0.0546
vn -0.0259 0.9961 -0.0845
vn -0.0259 0.9961 -0.0845
vn -0.0475 0.9974 -0.0546
vn 0.0347 0.9985 -0.0423
vn 0.0000 0.9940 -0.1093
vn 0.0000 0.9940 -0.1093
vn 0.0347 0.9985 -0.0423
vn 0.0951 0.9955 -0.0000
vn 0.0519 0.9974 -0.0499
# 36 vertex normals

vt 0.1555 0.3005 0.0000
vt 0.3877 0.3005 0.0000
vt 0.6199 0.3005 0.0000
vt 0.8521 0.3005 0.0000
vt 0.1555 0.5327 0.0000
vt 0.3877 0.5327 0.0000
vt 0.6199 0.5327 0.0000
vt 0.8521 0.5327 0.0000
vt 0.1555 0.7649 0.0000
vt 0.3877 0.7649 0.0000
vt 0.6199 0.7649 0.0000
vt 0.8521 0.7649 0.0000
vt 0.1555 0.9971 0.0000
vt 0.3877 0.9971 0.0000
vt 0.6199 0.9971 0.0000
vt 0.8521 0.9971 0.0000
# 16 texture coords

g parkingSeperator
s 1
f 30/53/81 26/49/82 27/50/83 31/54/84 
f 31/54/85 27/50/86 28/51/87 32/55/88 
f 32/55/89 28/51/90 29/52/91 33/56/92 
f 34/57/93 30/53/94 31/54/95 35/58/96 
f 35/58/97 31/54/98 32/55/99 36/59/100 
f 36/59/101 32/55/102 33/56/103 37/60/104 
f 38/61/105 34/57/106 35/58/107 39/62/108 
f 39/62/109 35/58/110 36/59/111 40/63/112 
f 40/63/113 36/59/114 37/60/115 41/64/116 
# 9 polygons

