#
# object ct_start
#

v  -39.3569 0.0000 -6.1445
v  -39.3569 0.0000 5.6665
v  39.3832 0.0000 -6.1445
v  39.3832 0.0000 5.6665
# 4 vertices

vn 0.0000 1.0000 -0.0000
vn 0.0000 1.0000 -0.0000
vn 0.0000 1.0000 -0.0000
vn 0.0000 1.0000 -0.0000
# 4 vertex normals

vt 0.0678 0.0045 0.0000
vt 0.1346 0.0045 0.0000
vt 0.0678 0.5292 0.0000
vt 0.1345 0.5292 0.0000
# 4 texture coords

g ct_start
s 1
f 3/3/1 1/1/2 2/2/3 4/4/4 
# 1 polygons

#
# object cracks__large
#

v  -23.9802 0.0000 22.6284
v  25.3000 0.0000 22.6284
v  -23.9802 0.0000 -23.5787
v  25.3000 0.0000 -23.5787
# 4 vertices

vn 0.0000 1.0000 -0.0000
vn 0.0000 1.0000 -0.0000
vn 0.0000 1.0000 -0.0000
vn 0.0000 1.0000 -0.0000
# 4 vertex normals

vt 0.1450 0.0045 0.0000
vt 0.4830 0.0045 0.0000
vt 0.1450 0.3653 0.0000
vt 0.4829 0.3653 0.0000
# 4 texture coords

g cracks__large
s 1
f 7/7/5 5/5/6 6/6/7 8/8/8 
# 1 polygons

#
# object cracks_small1
#

v  -14.4672 0.0000 13.7086
v  15.7870 0.0000 13.7086
v  -14.4672 0.0000 -14.6589
v  15.7870 0.0000 -14.6589
# 4 vertices

vn 0.0000 1.0000 -0.0000
vn 0.0000 1.0000 -0.0000
vn 0.0000 1.0000 -0.0000
vn 0.0000 1.0000 -0.0000
# 4 vertex normals

vt 0.1450 0.1702 0.0000
vt 0.3285 0.1702 0.0000
vt 0.1450 0.3653 0.0000
vt 0.3285 0.3653 0.0000
# 4 texture coords

g cracks_small1
s 1
f 11/11/9 9/9/10 10/10/11 12/12/12 
# 1 polygons

#
# object cracks_small2
#

v  -12.8936 0.0000 12.2332
v  14.2134 0.0000 12.2332
v  -12.8936 0.0000 -13.1834
v  14.2134 0.0000 -13.1834
# 4 vertices

vn 0.0000 1.0000 -0.0000
vn 0.0000 1.0000 -0.0000
vn 0.0000 1.0000 -0.0000
vn 0.0000 1.0000 -0.0000
# 4 vertex normals

vt 0.2373 0.0026 0.0000
vt 0.4773 0.0026 0.0000
vt 0.2373 0.1450 0.0000
vt 0.4773 0.1450 0.0000
# 4 texture coords

g cracks_small2
s 1
f 15/15/13 13/13/14 14/14/15 16/16/16 
# 1 polygons

#
# object rough_noise
#

v  -11.2799 0.0000 30.1386
v  12.5997 0.0000 30.1386
v  -11.2799 0.0000 -31.0888
v  12.5997 0.0000 -31.0888
# 4 vertices

vn 0.0000 1.0000 -0.0000
vn 0.0000 1.0000 -0.0000
vn 0.0000 1.0000 -0.0000
vn 0.0000 1.0000 -0.0000
# 4 vertex normals

vt 0.2203 0.5242 0.0000
vt 0.3831 0.5242 0.0000
vt 0.2203 0.9868 0.0000
vt 0.3831 0.9868 0.0000
# 4 texture coords

g rough_noise
s 1
f 19/19/17 17/17/18 18/18/19 20/20/20 
# 1 polygons

#
# object mr_noise1
#

v  -15.4916 0.0000 14.6692
v  16.8115 0.0000 14.6692
v  -15.4916 0.0000 -15.6195
v  16.8115 0.0000 -15.6195
# 4 vertices

vn 0.0000 1.0000 -0.0000
vn 0.0000 1.0000 -0.0000
vn 0.0000 1.0000 -0.0000
vn 0.0000 1.0000 -0.0000
# 4 vertex normals

vt 0.5008 0.0043 0.0000
vt 0.7449 0.0043 0.0000
vt 0.5008 0.2638 0.0000
vt 0.7449 0.2638 0.0000
# 4 texture coords

g mr_noise1
s 1
f 23/23/21 21/21/22 22/22/23 24/24/24 
# 1 polygons

#
# object mr_noise_2
#

v  -13.4447 0.0000 12.7499
v  14.7645 0.0000 12.7499
v  -13.4447 0.0000 -13.7002
v  14.7645 0.0000 -13.7002
# 4 vertices

vn 0.0000 1.0000 -0.0000
vn 0.0000 1.0000 -0.0000
vn 0.0000 1.0000 -0.0000
vn 0.0000 1.0000 -0.0000
# 4 vertex normals

vt 0.5299 0.2679 0.0000
vt 0.7421 0.2679 0.0000
vt 0.5299 0.4936 0.0000
vt 0.7421 0.4936 0.0000
# 4 texture coords

g mr_noise_2
s 1
f 27/27/25 25/25/26 26/26/27 28/28/28 
# 1 polygons

#
# object crack_pattern_sides
#

v  -7.6583 0.0000 19.2548
v  8.9781 0.0000 19.2548
v  -7.6583 0.0000 -20.2050
v  8.9781 0.0000 -20.2050
# 4 vertices

vn 0.0000 1.0000 -0.0000
vn 0.0000 1.0000 -0.0000
vn 0.0000 1.0000 -0.0000
vn 0.0000 1.0000 -0.0000
# 4 vertex normals

vt 0.8387 0.1829 0.0000
vt 0.9926 0.1829 0.0000
vt 0.8387 0.5635 0.0000
vt 0.9926 0.5635 0.0000
# 4 texture coords

g crack_pattern_sides
s 1
f 31/31/29 29/29/30 30/30/31 32/32/32 
# 1 polygons

#
# object cracks_pattern1
#

v  -16.9301 0.0000 12.6455
v  18.2499 0.0000 12.6455
v  -16.9301 0.0000 -13.5957
v  18.2499 0.0000 -13.5957
# 4 vertices

vn 0.0000 1.0000 -0.0000
vn 0.0000 1.0000 -0.0000
vn 0.0000 1.0000 -0.0000
vn 0.0000 1.0000 -0.0000
# 4 vertex normals

vt 0.7309 0.6192 0.0000
vt 0.9947 0.6192 0.0000
vt 0.7309 0.8065 0.0000
vt 0.9947 0.8065 0.0000
# 4 texture coords

g cracks_pattern1
s 1
f 35/35/33 33/33/34 34/34/35 36/36/36 
# 1 polygons

#
# object ct_Finish
#

v  -4.6764 0.0000 137.7790
v  3.1977 0.0000 137.7790
v  -4.6764 0.0000 -137.8115
v  3.1977 0.0000 -137.8115
# 4 vertices

vn 0.0000 1.0000 -0.0000
vn 0.0000 1.0000 -0.0000
vn 0.0000 1.0000 -0.0000
vn 0.0000 1.0000 -0.0000
# 4 vertex normals

vt 0.0000 0.0000 0.0000
vt 0.0370 0.0000 0.0000
vt 0.0000 1.0000 0.0000
vt 0.0370 1.0000 0.0000
# 4 texture coords

g ct_Finish
s 1
f 39/39/37 37/37/38 38/38/39 40/40/40 
# 1 polygons

