#
# object walk_bridge_sea_pole
#

v  40.1993 -118.5039 4.7166
v  35.9283 -118.5039 2.2718
v  35.9100 -118.5039 -2.6494
v  40.1627 -118.5039 -5.1259
v  44.4338 -118.5039 -2.6811
v  44.4521 -118.5039 2.2401
v  40.1993 0.0037 4.7166
v  35.9283 0.0037 2.2718
v  35.9100 0.0037 -2.6494
v  40.1627 0.0037 -5.1259
v  44.4338 0.0037 -2.6811
v  44.4521 0.0037 2.2401
# 12 vertices

vn -0.8642 0.0000 0.5032
vn -0.8642 0.0000 0.5032
vn 0.0037 -0.0000 1.0000
vn 0.0037 -0.0000 1.0000
vn -0.8679 0.0000 -0.4968
vn -0.8679 0.0000 -0.4968
vn -0.8642 0.0000 0.5032
vn -0.8642 0.0000 0.5032
vn -0.0037 0.0000 -1.0000
vn -0.0037 0.0000 -1.0000
vn -0.8679 0.0000 -0.4968
vn -0.8679 0.0000 -0.4968
vn 0.8642 -0.0000 -0.5032
vn 0.8642 -0.0000 -0.5032
vn -0.0037 0.0000 -1.0000
vn -0.0037 0.0000 -1.0000
vn 0.8679 -0.0000 0.4968
vn 0.8679 -0.0000 0.4968
vn 0.8642 -0.0000 -0.5032
vn 0.8642 -0.0000 -0.5032
vn 0.0037 -0.0000 1.0000
vn 0.0037 -0.0000 1.0000
vn 0.8679 -0.0000 0.4968
vn 0.8679 -0.0000 0.4968
# 24 vertex normals

vt 0.1247 0.0014 0.9990
vt 0.1494 0.7531 0.9990
vt 0.1247 0.7531 0.9990
vt 0.1494 0.0014 0.9990
vt 0.0261 0.7531 0.9990
vt 0.0261 0.0014 0.9990
vt 0.0507 0.7531 0.9990
vt 0.0507 0.0014 0.9990
vt 0.0754 0.7531 0.9990
vt 0.0754 0.0014 0.9990
vt 0.1001 0.7531 0.9990
vt 0.1001 0.0014 0.9990
vt 0.0014 0.0014 0.9990
vt 0.0014 0.7531 0.9990
# 14 texture coords

g walk_bridge_sea_pole
s 8
f 8/2/1 2/4/2 1/1/3 7/3/4 
f 9/5/5 3/6/6 2/13/7 8/14/8 
f 10/7/9 4/8/10 3/6/11 9/5/12 
f 11/9/13 5/10/14 4/8/15 10/7/16 
f 12/11/17 6/12/18 5/10/19 11/9/20 
f 7/3/21 1/1/22 6/12/23 12/11/24 
# 6 polygons

#
# object walk_bridge_sea
#

v  -59.0463 -1.0916 39.8600
v  59.0639 -1.0916 39.8600
v  -59.0463 -1.0916 -39.8600
v  59.0639 -1.0916 -39.8600
v  -59.0463 0.7874 39.8600
v  59.0639 0.7874 39.8600
v  -59.0463 0.7874 -39.8600
v  59.0639 0.7874 -39.8600
v  0.2517 0.7874 39.8600
v  -0.0001 0.7874 -39.8600
# 10 vertices

vn 0.0000 -1.0000 -0.0000
vn 0.0000 -1.0000 -0.0000
vn 0.0000 -1.0000 -0.0000
vn 0.0000 -1.0000 -0.0000
vn 1.0000 0.0000 -0.0000
vn 1.0000 0.0000 -0.0000
vn 1.0000 0.0000 -0.0000
vn 1.0000 0.0000 -0.0000
vn -1.0000 0.0000 -0.0000
vn -1.0000 0.0000 -0.0000
vn -1.0000 0.0000 -0.0000
vn -1.0000 0.0000 -0.0000
vn 0.0000 1.0000 -0.0000
vn 0.0000 1.0000 -0.0000
vn 0.0000 1.0000 -0.0000
vn 0.0000 1.0000 -0.0000
vn 0.0000 1.0000 -0.0000
vn 0.0000 1.0000 -0.0000
vn 0.0000 1.0000 -0.0000
vn 0.0000 1.0000 -0.0000
vn 0.0000 1.0000 -0.0000
vn 0.0000 1.0000 -0.0000
vn 0.0000 1.0000 -0.0000
vn 0.0000 1.0000 -0.0000
# 24 vertex normals

vt 0.3004 -0.0017 0.0000
vt 0.9997 -0.0017 0.0000
vt 0.3004 0.9983 0.0000
vt 0.9997 0.9983 0.0000
vt 0.7941 0.0002 0.0000
vt 0.7941 1.0002 0.0000
vt 0.7851 0.0002 0.0000
vt 0.7851 1.0002 0.0000
vt 0.8111 0.0000 0.0000
vt 0.8111 1.0000 0.0000
vt 0.8023 -0.0000 0.0000
vt 0.8023 1.0000 0.0000
vt 0.3145 0.0000 0.0000
vt 0.9812 0.0000 0.0000
vt 0.9821 1.0019 0.0000
vt 0.3161 1.0002 0.0000
vt 0.6620 1.0009 0.0000
vt 0.6620 -0.0009 0.0000
# 18 texture coords

g walk_bridge_sea
s 2
f 13/16/25 15/18/26 16/17/27 14/15/28 
s 16
f 14/23/29 16/24/30 20/26/31 18/25/32 
s 64
f 15/19/33 13/20/34 17/22/35 19/21/36 
s 4
f 17/27/37 22/31/38 19/30/39 
f 17/27/40 21/32/41 22/31/42 
f 21/32/43 18/28/44 20/29/45 
f 21/32/46 20/29/47 22/31/48 
# 3 polygons - 4 triangles

#
# object walk_bridge_sea
#

v  44.4369 -11.1253 39.8600
v  52.3100 -11.1253 39.8600
v  44.4369 -11.1253 -39.8600
v  52.3100 -11.1253 -39.8600
v  44.4369 -1.2828 39.8600
v  52.3100 -1.2828 39.8600
v  44.4369 -1.2828 -39.8600
v  52.3100 -1.2828 -39.8600
# 8 vertices

vn 0.0000 -1.0000 -0.0000
vn 0.0000 -1.0000 -0.0000
vn 0.0000 -1.0000 -0.0000
vn 0.0000 -1.0000 -0.0000
vn 1.0000 0.0000 -0.0000
vn 1.0000 0.0000 -0.0000
vn 1.0000 0.0000 -0.0000
vn 1.0000 0.0000 -0.0000
vn -1.0000 0.0000 -0.0000
vn -1.0000 0.0000 -0.0000
vn -1.0000 0.0000 -0.0000
vn -1.0000 0.0000 -0.0000
# 12 vertex normals

vt 0.1460 0.0009 0.0000
vt 0.1450 0.9435 0.0000
vt 0.0057 0.0009 0.0000
vt 0.0047 0.9435 0.0000
vt 0.1460 0.0009 0.0000
vt 0.1450 0.9435 0.0000
vt 0.0057 0.0009 0.0000
vt 0.0047 0.9435 0.0000
# 8 texture coords

g walk_bridge_sea
s 2
f 23/38/49 25/40/50 26/39/51 24/37/52 
s 16
f 24/33/53 26/34/54 30/36/55 28/35/56 
s 64
f 25/33/57 23/34/58 27/36/59 29/35/60 
# 3 polygons

#
# object walk_bridge_sea_pole
#

v  48.4518 0.3974 -2.6794
v  46.3479 0.3974 -1.4257
v  46.3653 0.3974 1.0490
v  48.4866 0.3974 2.2701
v  50.5904 0.3974 1.0163
v  50.5730 0.3974 -1.4584
v  48.4518 39.3701 -2.6794
v  46.3479 39.3701 -1.4257
v  46.3653 39.3701 1.0490
v  48.4866 39.3701 2.2701
v  50.5904 39.3701 1.0163
v  50.5730 39.3701 -1.4584
# 12 vertices

vn -0.0076 0.0000 -1.0000
vn -0.8712 -0.0000 -0.4910
vn -0.8712 -0.0000 -0.4910
vn -0.0076 0.0000 -1.0000
vn -0.8712 -0.0000 -0.4910
vn -0.8639 -0.0000 0.5036
vn -0.8639 -0.0000 0.5036
vn -0.8712 -0.0000 -0.4910
vn -0.8639 -0.0000 0.5036
vn 0.0076 -0.0000 1.0000
vn 0.0076 -0.0000 1.0000
vn -0.8639 -0.0000 0.5036
vn 0.0076 -0.0000 1.0000
vn 0.8712 0.0000 0.4910
vn 0.8712 0.0000 0.4910
vn 0.0076 -0.0000 1.0000
vn 0.8712 0.0000 0.4910
vn 0.8639 0.0000 -0.5036
vn 0.8639 0.0000 -0.5036
vn 0.8712 0.0000 0.4910
vn 0.8639 0.0000 -0.5036
vn -0.0076 0.0000 -1.0000
vn -0.0076 0.0000 -1.0000
vn 0.8639 0.0000 -0.5036
vn 0.0000 1.0000 -0.0000
vn 0.0000 1.0000 -0.0000
vn 0.0000 1.0000 -0.0000
vn 0.0000 1.0000 -0.0000
vn 0.0000 1.0000 -0.0000
vn 0.0000 1.0000 -0.0000
# 30 vertex normals

vt 0.0529 0.9729 0.5000
vt 0.0431 0.9926 0.5000
vt 0.0234 0.9926 0.5000
vt 0.0136 0.9729 0.5000
vt 0.0234 0.9533 0.5000
vt 0.0431 0.9533 0.5000
vt 0.1494 0.6966 0.9990
vt 0.1247 0.6966 0.9990
vt 0.0261 0.6966 0.9990
vt 0.0507 0.6966 0.9990
vt 0.0754 0.6966 0.9990
vt 0.1001 0.6966 0.9990
vt 0.1494 0.9438 0.9990
vt 0.1247 0.9438 0.9990
vt 0.0261 0.9438 0.9990
vt 0.0507 0.9438 0.9990
vt 0.0754 0.9438 0.9990
vt 0.1001 0.9438 0.9990
vt 0.0014 0.6966 0.9990
vt 0.0014 0.9438 0.9990
# 20 texture coords

g walk_bridge_sea_pole
s 8
f 31/48/61 32/47/62 38/53/63 37/54/64 
f 32/59/65 33/49/66 39/55/67 38/60/68 
f 33/49/69 34/50/70 40/56/71 39/55/72 
f 34/50/73 35/51/74 41/57/75 40/56/76 
f 35/51/77 36/52/78 42/58/79 41/57/80 
f 36/52/81 31/48/82 37/54/83 42/58/84 
s 1
f 42/46/85 37/41/86 38/42/87 39/43/88 40/44/89 41/45/90 
# 7 polygons

#
# object walk_bridge_sea
#

v  46.8512 34.6777 -39.8600
v  47.6406 33.3150 -39.8600
v  49.2154 33.3174 -39.8600
v  50.0008 34.6824 -39.8600
v  49.2113 36.0450 -39.8600
v  47.6365 36.0426 -39.8600
v  46.8512 34.6777 39.8600
v  47.6406 33.3150 39.8600
v  49.2154 33.3174 39.8600
v  50.0008 34.6824 39.8600
v  49.2113 36.0450 39.8600
v  47.6365 36.0426 39.8600
# 12 vertices

vn -1.0000 -0.0015 0.0000
vn -0.4987 -0.8668 0.0000
vn -0.4987 -0.8668 0.0000
vn -1.0000 -0.0015 -0.0000
vn -0.4987 -0.8668 0.0000
vn 0.5013 -0.8653 0.0000
vn 0.5013 -0.8653 0.0000
vn -0.4987 -0.8668 0.0000
vn 0.5013 -0.8653 0.0000
vn 1.0000 0.0015 -0.0000
vn 1.0000 0.0015 0.0000
vn 0.5013 -0.8653 0.0000
vn 1.0000 0.0015 -0.0000
vn 0.4987 0.8668 -0.0000
vn 0.4987 0.8668 -0.0000
vn 1.0000 0.0015 0.0000
vn 0.4987 0.8668 -0.0000
vn -0.5013 0.8653 -0.0000
vn -0.5013 0.8653 -0.0000
vn 0.4987 0.8668 -0.0000
vn -0.5013 0.8653 -0.0000
vn -1.0000 -0.0015 0.0000
vn -1.0000 -0.0015 -0.0000
vn -0.5013 0.8653 -0.0000
# 24 vertex normals

vt 0.1094 0.0009 0.9990
vt 0.1263 0.9441 0.9990
vt 0.1083 0.9441 0.9990
vt 0.1273 0.0009 0.9990
vt 0.0365 0.9441 0.9990
vt 0.0375 0.0009 0.9990
vt 0.0545 0.9441 0.9990
vt 0.0555 0.0009 0.9990
vt 0.0724 0.9441 0.9990
vt 0.0734 0.0009 0.9990
vt 0.0904 0.9441 0.9990
vt 0.0914 0.0009 0.9990
vt 0.0196 0.0009 0.9990
vt 0.0185 0.9441 0.9990
# 14 texture coords

g walk_bridge_sea
s 8
f 43/61/91 44/64/92 50/62/93 49/63/94 
f 44/73/95 45/66/96 51/65/97 50/74/98 
f 45/66/99 46/68/100 52/67/101 51/65/102 
f 46/68/103 47/70/104 53/69/105 52/67/106 
f 47/70/107 48/72/108 54/71/109 53/69/110 
f 48/72/111 43/61/112 49/63/113 54/71/114 
# 6 polygons

#
# object walk_bridge_sea
#

v  46.8512 13.2591 -39.8600
v  47.6406 11.8965 -39.8600
v  49.2154 11.8989 -39.8600
v  50.0008 13.2638 -39.8600
v  49.2113 14.6265 -39.8600
v  47.6365 14.6241 -39.8600
v  46.8512 13.2591 39.8600
v  47.6406 11.8965 39.8600
v  49.2154 11.8989 39.8600
v  50.0008 13.2638 39.8600
v  49.2113 14.6265 39.8600
v  47.6365 14.6241 39.8600
# 12 vertices

vn -1.0000 -0.0015 0.0000
vn -0.4987 -0.8668 0.0000
vn -0.4987 -0.8668 0.0000
vn -1.0000 -0.0015 -0.0000
vn -0.4987 -0.8668 0.0000
vn 0.5013 -0.8653 0.0000
vn 0.5013 -0.8653 0.0000
vn -0.4987 -0.8668 0.0000
vn 0.5013 -0.8653 0.0000
vn 1.0000 0.0015 -0.0000
vn 1.0000 0.0015 0.0000
vn 0.5013 -0.8653 0.0000
vn 1.0000 0.0015 -0.0000
vn 0.4987 0.8668 -0.0000
vn 0.4987 0.8668 -0.0000
vn 1.0000 0.0015 0.0000
vn 0.4987 0.8668 -0.0000
vn -0.5013 0.8653 -0.0000
vn -0.5013 0.8653 -0.0000
vn 0.4987 0.8668 -0.0000
vn -0.5013 0.8653 -0.0000
vn -1.0000 -0.0015 0.0000
vn -1.0000 -0.0015 -0.0000
vn -0.5013 0.8653 -0.0000
# 24 vertex normals

vt 0.1094 0.0009 0.9990
vt 0.1263 0.9441 0.9990
vt 0.1083 0.9441 0.9990
vt 0.1273 0.0009 0.9990
vt 0.0365 0.9441 0.9990
vt 0.0375 0.0009 0.9990
vt 0.0545 0.9441 0.9990
vt 0.0555 0.0009 0.9990
vt 0.0724 0.9441 0.9990
vt 0.0734 0.0009 0.9990
vt 0.0904 0.9441 0.9990
vt 0.0914 0.0009 0.9990
vt 0.0196 0.0009 0.9990
vt 0.0185 0.9441 0.9990
# 14 texture coords

g walk_bridge_sea
s 8
f 55/75/115 56/78/116 62/76/117 61/77/118 
f 56/87/119 57/80/120 63/79/121 62/88/122 
f 57/80/123 58/82/124 64/81/125 63/79/126 
f 58/82/127 59/84/128 65/83/129 64/81/130 
f 59/84/131 60/86/132 66/85/133 65/83/134 
f 60/86/135 55/75/136 61/77/137 66/85/138 
# 6 polygons

#
# object walk_bridge_sea_pole
#

v  -41.2713 -118.5039 4.7165
v  -37.0228 -118.5039 2.2327
v  -37.0496 -118.5039 -2.6885
v  -41.3248 -118.5039 -5.1259
v  -45.5733 -118.5039 -2.6421
v  -45.5465 -118.5039 2.2791
v  -41.2713 0.0037 4.7165
v  -37.0228 0.0037 2.2327
v  -37.0496 0.0037 -2.6885
v  -41.3248 0.0037 -5.1259
v  -45.5733 0.0037 -2.6421
v  -45.5465 0.0037 2.2791
# 12 vertices

vn 0.0054 -0.0000 1.0000
vn 0.8687 0.0000 0.4953
vn 0.8687 0.0000 0.4953
vn 0.0054 -0.0000 1.0000
vn 0.8687 0.0000 0.4953
vn 0.8633 0.0000 -0.5047
vn 0.8633 0.0000 -0.5047
vn 0.8687 0.0000 0.4953
vn 0.8633 0.0000 -0.5047
vn -0.0054 0.0000 -1.0000
vn -0.0054 0.0000 -1.0000
vn 0.8633 0.0000 -0.5047
vn -0.0054 0.0000 -1.0000
vn -0.8687 -0.0000 -0.4953
vn -0.8687 -0.0000 -0.4953
vn -0.0054 0.0000 -1.0000
vn -0.8687 -0.0000 -0.4953
vn -0.8633 -0.0000 0.5047
vn -0.8633 -0.0000 0.5047
vn -0.8687 -0.0000 -0.4953
vn -0.8633 -0.0000 0.5047
vn 0.0054 -0.0000 1.0000
vn 0.0054 -0.0000 1.0000
vn -0.8633 -0.0000 0.5047
# 24 vertex normals

vt 0.1247 0.0014 0.9990
vt 0.1494 0.7531 0.9990
vt 0.1247 0.7531 0.9990
vt 0.1494 0.0014 0.9990
vt 0.0261 0.7531 0.9990
vt 0.0261 0.0014 0.9990
vt 0.0507 0.7531 0.9990
vt 0.0507 0.0014 0.9990
vt 0.0754 0.7531 0.9990
vt 0.0754 0.0014 0.9990
vt 0.1001 0.7531 0.9990
vt 0.1001 0.0014 0.9990
vt 0.0014 0.0014 0.9990
vt 0.0014 0.7531 0.9990
# 14 texture coords

g walk_bridge_sea_pole
s 8
f 67/89/139 68/92/140 74/90/141 73/91/142 
f 68/101/143 69/94/144 75/93/145 74/102/146 
f 69/94/147 70/96/148 76/95/149 75/93/150 
f 70/96/151 71/98/152 77/97/153 76/95/154 
f 71/98/155 72/100/156 78/99/157 77/97/158 
f 72/100/159 67/89/160 73/91/161 78/99/162 
# 6 polygons

#
# object walk_bridge_sea
#

v  -53.4252 -11.1253 39.8600
v  -45.5521 -11.1253 39.8600
v  -53.4252 -11.1253 -39.8600
v  -45.5521 -11.1253 -39.8600
v  -53.4252 -1.2828 39.8600
v  -45.5521 -1.2828 39.8600
v  -53.4252 -1.2828 -39.8600
v  -45.5521 -1.2828 -39.8600
# 8 vertices

vn 0.0000 -1.0000 -0.0000
vn 0.0000 -1.0000 -0.0000
vn 0.0000 -1.0000 -0.0000
vn 0.0000 -1.0000 -0.0000
vn 1.0000 0.0000 -0.0000
vn 1.0000 0.0000 -0.0000
vn 1.0000 0.0000 -0.0000
vn 1.0000 0.0000 -0.0000
vn -1.0000 0.0000 -0.0000
vn -1.0000 0.0000 -0.0000
vn -1.0000 0.0000 -0.0000
vn -1.0000 0.0000 -0.0000
# 12 vertex normals

vt 0.1460 0.0009 0.0000
vt 0.1450 0.9435 0.0000
vt 0.0057 0.0009 0.0000
vt 0.0047 0.9435 0.0000
vt 0.1460 0.0009 0.0000
vt 0.1450 0.9435 0.0000
vt 0.0057 0.0009 0.0000
vt 0.0047 0.9435 0.0000
# 8 texture coords

g walk_bridge_sea
s 2
f 79/108/163 81/110/164 82/109/165 80/107/166 
s 16
f 80/103/167 82/104/168 86/106/169 84/105/170 
s 64
f 81/103/171 79/104/172 83/106/173 85/105/174 
# 3 polygons

#
# object walk_bridge_sea_pole
#

v  -49.3938 0.3974 2.2701
v  -47.2808 0.3974 1.0320
v  -47.2799 0.3974 -1.4428
v  -49.3921 0.3974 -2.6795
v  -51.5051 0.3974 -1.4413
v  -51.5060 0.3974 1.0335
v  -49.3938 39.3701 2.2701
v  -47.2808 39.3701 1.0320
v  -47.2799 39.3701 -1.4428
v  -49.3921 39.3701 -2.6795
v  -51.5051 39.3701 -1.4413
v  -51.5060 39.3701 1.0335
# 12 vertices

vn 0.0002 0.0000 1.0000
vn 0.8675 -0.0000 0.4974
vn 0.8675 -0.0000 0.4974
vn 0.0002 0.0000 1.0000
vn 0.8675 -0.0000 0.4974
vn 0.8676 -0.0000 -0.4972
vn 0.8676 -0.0000 -0.4972
vn 0.8675 -0.0000 0.4974
vn 0.8676 -0.0000 -0.4972
vn -0.0002 -0.0000 -1.0000
vn -0.0002 -0.0000 -1.0000
vn 0.8676 -0.0000 -0.4972
vn -0.0002 -0.0000 -1.0000
vn -0.8675 0.0000 -0.4974
vn -0.8675 0.0000 -0.4974
vn -0.0002 -0.0000 -1.0000
vn -0.8675 0.0000 -0.4974
vn -0.8676 0.0000 0.4972
vn -0.8676 0.0000 0.4972
vn -0.8675 0.0000 -0.4974
vn -0.8676 0.0000 0.4972
vn 0.0002 0.0000 1.0000
vn 0.0002 0.0000 1.0000
vn -0.8676 0.0000 0.4972
vn 0.0000 1.0000 -0.0000
vn 0.0000 1.0000 -0.0000
vn 0.0000 1.0000 -0.0000
vn 0.0000 1.0000 -0.0000
vn 0.0000 1.0000 -0.0000
vn 0.0000 1.0000 -0.0000
# 30 vertex normals

vt 0.0529 0.9729 0.5000
vt 0.0431 0.9926 0.5000
vt 0.0234 0.9926 0.5000
vt 0.0136 0.9729 0.5000
vt 0.0234 0.9533 0.5000
vt 0.0431 0.9533 0.5000
vt 0.1494 0.6966 0.9990
vt 0.1247 0.6966 0.9990
vt 0.0261 0.6966 0.9990
vt 0.0507 0.6966 0.9990
vt 0.0754 0.6966 0.9990
vt 0.1001 0.6966 0.9990
vt 0.1494 0.9438 0.9990
vt 0.1247 0.9438 0.9990
vt 0.0261 0.9438 0.9990
vt 0.0507 0.9438 0.9990
vt 0.0754 0.9438 0.9990
vt 0.1001 0.9438 0.9990
vt 0.0014 0.6966 0.9990
vt 0.0014 0.9438 0.9990
# 20 texture coords

g walk_bridge_sea_pole
s 8
f 87/118/175 88/117/176 94/123/177 93/124/178 
f 88/129/179 89/119/180 95/125/181 94/130/182 
f 89/119/183 90/120/184 96/126/185 95/125/186 
f 90/120/187 91/121/188 97/127/189 96/126/190 
f 91/121/191 92/122/192 98/128/193 97/127/194 
f 92/122/195 87/118/196 93/124/197 98/128/198 
s 1
f 98/116/199 93/111/200 94/112/201 95/113/202 96/114/203 97/115/204 
# 7 polygons

#
# object walk_bridge_sea
#

v  -51.0109 13.2591 -39.8600
v  -50.2215 11.8965 -39.8600
v  -48.6467 11.8989 -39.8600
v  -47.8613 13.2638 -39.8600
v  -48.6508 14.6265 -39.8600
v  -50.2256 14.6241 -39.8600
v  -51.0109 13.2591 39.8600
v  -50.2215 11.8965 39.8600
v  -48.6467 11.8989 39.8600
v  -47.8613 13.2638 39.8600
v  -48.6508 14.6265 39.8600
v  -50.2256 14.6241 39.8600
# 12 vertices

vn -1.0000 -0.0015 0.0000
vn -0.4987 -0.8668 0.0000
vn -0.4987 -0.8668 0.0000
vn -1.0000 -0.0015 -0.0000
vn -0.4987 -0.8668 0.0000
vn 0.5013 -0.8653 0.0000
vn 0.5013 -0.8653 0.0000
vn -0.4987 -0.8668 0.0000
vn 0.5013 -0.8653 0.0000
vn 1.0000 0.0015 -0.0000
vn 1.0000 0.0015 0.0000
vn 0.5013 -0.8653 0.0000
vn 1.0000 0.0015 -0.0000
vn 0.4987 0.8668 -0.0000
vn 0.4987 0.8668 -0.0000
vn 1.0000 0.0015 0.0000
vn 0.4987 0.8668 -0.0000
vn -0.5013 0.8653 -0.0000
vn -0.5013 0.8653 -0.0000
vn 0.4987 0.8668 -0.0000
vn -0.5013 0.8653 -0.0000
vn -1.0000 -0.0015 0.0000
vn -1.0000 -0.0015 -0.0000
vn -0.5013 0.8653 -0.0000
# 24 vertex normals

vt 0.1094 0.0009 0.9990
vt 0.1263 0.9441 0.9990
vt 0.1083 0.9441 0.9990
vt 0.1273 0.0009 0.9990
vt 0.0365 0.9441 0.9990
vt 0.0375 0.0009 0.9990
vt 0.0545 0.9441 0.9990
vt 0.0555 0.0009 0.9990
vt 0.0724 0.9441 0.9990
vt 0.0734 0.0009 0.9990
vt 0.0904 0.9441 0.9990
vt 0.0914 0.0009 0.9990
vt 0.0196 0.0009 0.9990
vt 0.0185 0.9441 0.9990
# 14 texture coords

g walk_bridge_sea
s 8
f 99/131/205 100/134/206 106/132/207 105/133/208 
f 100/143/209 101/136/210 107/135/211 106/144/212 
f 101/136/213 102/138/214 108/137/215 107/135/216 
f 102/138/217 103/140/218 109/139/219 108/137/220 
f 103/140/221 104/142/222 110/141/223 109/139/224 
f 104/142/225 99/131/226 105/133/227 110/141/228 
# 6 polygons

#
# object walk_bridge_sea
#

v  -51.0109 34.6777 -39.8600
v  -50.2215 33.3150 -39.8600
v  -48.6467 33.3174 -39.8600
v  -47.8613 34.6824 -39.8600
v  -48.6508 36.0450 -39.8600
v  -50.2256 36.0426 -39.8600
v  -51.0109 34.6777 39.8600
v  -50.2215 33.3150 39.8600
v  -48.6467 33.3174 39.8600
v  -47.8613 34.6824 39.8600
v  -48.6508 36.0450 39.8600
v  -50.2256 36.0426 39.8600
# 12 vertices

vn -1.0000 -0.0015 0.0000
vn -0.4987 -0.8668 0.0000
vn -0.4987 -0.8668 0.0000
vn -1.0000 -0.0015 -0.0000
vn -0.4987 -0.8668 0.0000
vn 0.5013 -0.8653 0.0000
vn 0.5013 -0.8653 0.0000
vn -0.4987 -0.8668 0.0000
vn 0.5013 -0.8653 0.0000
vn 1.0000 0.0015 -0.0000
vn 1.0000 0.0015 0.0000
vn 0.5013 -0.8653 0.0000
vn 1.0000 0.0015 -0.0000
vn 0.4987 0.8668 -0.0000
vn 0.4987 0.8668 -0.0000
vn 1.0000 0.0015 0.0000
vn 0.4987 0.8668 -0.0000
vn -0.5013 0.8653 -0.0000
vn -0.5013 0.8653 -0.0000
vn 0.4987 0.8668 -0.0000
vn -0.5013 0.8653 -0.0000
vn -1.0000 -0.0015 0.0000
vn -1.0000 -0.0015 -0.0000
vn -0.5013 0.8653 -0.0000
# 24 vertex normals

vt 0.1094 0.0009 0.9990
vt 0.1263 0.9441 0.9990
vt 0.1083 0.9441 0.9990
vt 0.1273 0.0009 0.9990
vt 0.0365 0.9441 0.9990
vt 0.0375 0.0009 0.9990
vt 0.0545 0.9441 0.9990
vt 0.0555 0.0009 0.9990
vt 0.0724 0.9441 0.9990
vt 0.0734 0.0009 0.9990
vt 0.0904 0.9441 0.9990
vt 0.0914 0.0009 0.9990
vt 0.0196 0.0009 0.9990
vt 0.0185 0.9441 0.9990
# 14 texture coords

g walk_bridge_sea
s 8
f 111/145/229 112/148/230 118/146/231 117/147/232 
f 112/157/233 113/150/234 119/149/235 118/158/236 
f 113/150/237 114/152/238 120/151/239 119/149/240 
f 114/152/241 115/154/242 121/153/243 120/151/244 
f 115/154/245 116/156/246 122/155/247 121/153/248 
f 116/156/249 111/145/250 117/147/251 122/155/252 
# 6 polygons

