#
# object CartTrackWallSmall
#

v  -4.3614 -0.0300 1.4961
v  -6.2205 -0.0300 1.4961
v  -6.2205 0.1000 1.4961
v  -6.4961 0.1000 1.4961
v  -6.4961 -3.0108 1.4961
v  -4.3614 -0.0300 -1.4961
v  -6.2205 -0.0300 -1.4961
v  -6.2205 0.1000 -1.4961
v  -6.4961 0.1000 -1.4961
v  -6.4961 -3.0108 -1.4961
v  -4.3614 -0.0300 -2.0192
v  -6.2205 -0.0300 -2.0192
v  -6.2205 0.1000 -2.0194
v  -6.4961 0.1000 -2.0194
v  -6.4961 -3.0108 -2.0194
v  -4.3614 0.1000 -2.0194
v  -6.4961 0.1000 -2.2835
v  -6.4961 -3.0108 -2.2835
v  -4.3614 0.0999 -2.2835
v  -4.3614 -3.0108 -2.2835
v  -4.3614 -0.0300 2.0217
v  -6.2205 -0.0300 2.0216
v  -6.2205 0.1000 2.0218
v  -6.4961 0.1000 2.0218
v  -6.4961 -3.0108 2.0218
v  -4.3614 0.1000 2.0218
v  -6.4961 0.1000 2.2683
v  -6.4961 -3.0108 2.2683
v  -4.3614 0.0999 2.2689
v  -4.3614 -3.0108 2.2688
v  4.3614 -0.0300 1.4961
v  6.2598 -0.0300 1.4961
v  6.2598 0.1000 1.4961
v  6.4961 0.1000 1.4961
v  6.4961 -3.0108 1.4961
v  4.3614 -0.0300 -1.4961
v  6.2598 -0.0300 -1.4961
v  6.2598 0.1000 -1.4961
v  6.4961 0.1000 -1.4961
v  6.4961 -3.0108 -1.4961
v  4.3614 -0.0300 -2.0192
v  6.2598 -0.0300 -2.0192
v  6.2598 0.1000 -2.0194
v  6.4961 0.1000 -2.0194
v  6.4961 -3.0108 -2.0194
v  4.3614 0.1000 -2.0194
v  6.4961 0.1000 -2.2658
v  6.4961 -3.0108 -2.2658
v  4.3614 0.0999 -2.2664
v  4.3614 -3.0108 -2.2666
v  4.3614 -0.0300 2.0217
v  6.2598 -0.0300 2.0216
v  6.2598 0.1000 2.0218
v  6.4961 0.1000 2.0218
v  6.4961 -3.0108 2.0218
v  4.3614 0.1000 2.0218
v  6.4961 0.1000 2.2683
v  6.4961 -3.0108 2.2683
v  4.3614 0.0999 2.2689
v  4.3614 -3.0108 2.2692
# 60 vertices

vn 0.0000 1.0000 0.0000
vn 0.0000 1.0000 -0.0000
vn 0.0000 1.0000 -0.0000
vn 0.0000 1.0000 0.0000
vn 0.0000 1.0000 -0.0000
vn 0.0000 1.0000 0.0000
vn 1.0000 -0.0000 0.0000
vn 1.0000 0.0000 0.0000
vn 1.0000 0.0000 0.0000
vn 1.0000 -0.0000 0.0000
vn 1.0000 0.0000 0.0000
vn 1.0000 0.0000 0.0000
vn 0.0000 1.0000 0.0000
vn 0.0000 1.0000 -0.0000
vn 0.0000 1.0000 0.0000
vn 0.0000 1.0000 0.0000
vn 0.0000 1.0000 0.0000
vn 0.0000 1.0000 -0.0000
vn -1.0000 -0.0000 -0.0000
vn -1.0000 0.0000 -0.0000
vn -1.0000 0.0000 -0.0000
vn -1.0000 -0.0000 -0.0000
vn -1.0000 0.0000 -0.0000
vn -1.0000 -0.0000 -0.0000
vn 0.0000 1.0000 -0.0000
vn 0.0000 1.0000 -0.0000
vn 0.0000 1.0000 -0.0000
vn 0.0000 1.0000 -0.0000
vn 0.0000 1.0000 -0.0000
vn 0.0000 1.0000 -0.0000
vn 1.0000 0.0000 0.0000
vn 1.0000 0.0000 0.0000
vn 1.0000 0.0000 0.0000
vn 1.0000 0.0000 0.0000
vn 1.0000 0.0000 0.0000
vn 1.0000 0.0000 0.0000
vn 0.0000 1.0000 -0.0000
vn 0.0000 1.0000 -0.0000
vn 0.0000 1.0000 -0.0000
vn 0.0000 1.0000 -0.0000
vn 0.0000 1.0000 -0.0000
vn 0.0000 1.0000 0.0000
vn -1.0000 0.0000 -0.0000
vn -1.0000 -0.0000 0.0000
vn -1.0000 0.0000 -0.0000
vn -1.0000 0.0000 -0.0000
vn -1.0000 0.0000 -0.0000
vn -1.0000 0.0000 -0.0000
vn -0.0000 0.0011 1.0000
vn -0.0000 0.0010 1.0000
vn 0.0000 0.0017 1.0000
vn -0.0000 0.0011 1.0000
vn 0.0000 0.0017 1.0000
vn 0.0000 0.0017 1.0000
vn 0.0000 1.0000 -0.0000
vn 0.0000 1.0000 -0.0000
vn 0.0000 1.0000 -0.0000
vn -1.0000 -0.0000 0.0000
vn -1.0000 -0.0000 0.0000
vn -1.0000 -0.0000 0.0000
vn -1.0000 -0.0000 0.0000
vn -1.0000 -0.0000 0.0000
vn -1.0000 0.0000 -0.0000
vn 0.0000 1.0000 -0.0003
vn 0.0000 1.0000 -0.0003
vn 0.0000 1.0000 -0.0003
vn -0.0000 1.0000 0.0000
vn -0.0000 1.0000 0.0000
vn -0.0000 1.0000 0.0000
vn -0.0000 0.0000 -1.0000
vn -0.0000 0.0000 -1.0000
vn -0.0000 0.0000 -1.0000
vn -0.0000 0.0000 -1.0000
vn -0.0000 0.0000 -1.0000
vn -0.0000 0.0000 -1.0000
vn 0.0000 1.0000 0.0000
vn 0.0000 1.0000 0.0000
vn 0.0000 1.0000 0.0000
vn 0.0000 1.0000 0.0000
vn 0.0000 1.0000 0.0000
vn 0.0000 1.0000 0.0000
vn 1.0000 -0.0000 0.0000
vn 1.0000 -0.0000 0.0000
vn 1.0000 -0.0000 0.0000
vn 1.0000 -0.0000 0.0000
vn 1.0000 -0.0000 0.0000
vn 1.0000 0.0000 0.0000
vn 0.0000 1.0000 0.0000
vn 0.0000 1.0000 0.0000
vn 0.0000 1.0000 0.0000
vn 0.0000 1.0000 0.0000
vn 0.0000 1.0000 0.0000
vn 0.0000 1.0000 -0.0000
vn -1.0000 0.0000 0.0000
vn -1.0000 -0.0000 -0.0000
vn -1.0000 -0.0000 -0.0000
vn -1.0000 -0.0000 -0.0000
vn -1.0000 -0.0000 -0.0000
vn -1.0000 -0.0000 -0.0000
vn -0.0000 0.0010 -1.0000
vn -0.0000 0.0011 -1.0000
vn 0.0000 0.0017 -1.0000
vn 0.0000 0.0017 -1.0000
vn -0.0000 0.0011 -1.0000
vn 0.0000 0.0017 -1.0000
vn 0.0000 1.0000 -0.0000
vn 0.0000 1.0000 0.0000
vn 0.0000 1.0000 0.0000
vn -1.0000 0.0000 0.0000
vn -1.0000 0.0000 0.0000
vn -1.0000 -0.0000 0.0000
vn -1.0000 -0.0000 0.0000
vn -1.0000 0.0000 0.0000
vn -1.0000 -0.0000 -0.0000
vn 0.0000 1.0000 0.0004
vn 0.0000 1.0000 0.0004
vn 0.0000 1.0000 0.0004
vn -0.0000 1.0000 -0.0000
vn -0.0000 1.0000 -0.0000
vn -0.0000 1.0000 -0.0000
vn -0.0003 -0.0000 1.0000
vn -0.0003 -0.0000 1.0000
vn -0.0003 -0.0000 1.0000
vn -0.0003 -0.0000 1.0000
vn -0.0003 -0.0000 1.0000
vn -0.0003 -0.0000 1.0000
vn -0.0000 1.0000 -0.0000
vn -0.0000 1.0000 0.0000
vn -0.0000 1.0000 -0.0000
vn -0.0000 1.0000 -0.0000
vn -0.0000 1.0000 0.0000
vn -0.0000 1.0000 0.0000
vn -1.0000 0.0000 0.0000
vn -1.0000 0.0000 0.0000
vn -1.0000 0.0000 0.0000
vn -1.0000 0.0000 0.0000
vn -1.0000 0.0000 0.0000
vn -1.0000 0.0000 0.0000
vn -0.0000 1.0000 -0.0000
vn -0.0000 1.0000 0.0000
vn -0.0000 1.0000 0.0000
vn -0.0000 1.0000 0.0000
vn -0.0000 1.0000 0.0000
vn -0.0000 1.0000 -0.0000
vn 1.0000 0.0000 -0.0000
vn 1.0000 -0.0000 -0.0000
vn 1.0000 0.0000 0.0000
vn 1.0000 0.0000 0.0000
vn 1.0000 -0.0000 -0.0000
vn 1.0000 0.0000 0.0000
vn -0.0000 1.0000 -0.0000
vn -0.0000 1.0000 -0.0000
vn -0.0000 1.0000 -0.0000
vn -0.0000 1.0000 -0.0000
vn -0.0000 1.0000 -0.0000
vn -0.0000 1.0000 -0.0000
vn -1.0000 0.0000 0.0000
vn -1.0000 0.0000 0.0000
vn -1.0000 0.0000 0.0000
vn -1.0000 0.0000 0.0000
vn -1.0000 0.0000 0.0000
vn -1.0000 0.0000 0.0000
vn -0.0000 1.0000 -0.0000
vn -0.0000 1.0000 -0.0000
vn -0.0000 1.0000 -0.0000
vn -0.0000 1.0000 -0.0000
vn -0.0000 1.0000 -0.0000
vn -0.0000 1.0000 0.0000
vn 1.0000 0.0000 -0.0000
vn 1.0000 0.0000 -0.0000
vn 1.0000 0.0000 0.0000
vn 1.0000 0.0000 0.0000
vn 1.0000 0.0000 -0.0000
vn 1.0000 0.0000 0.0000
vn 0.0000 0.0010 1.0000
vn 0.0000 0.0011 1.0000
vn -0.0000 0.0017 1.0000
vn -0.0000 0.0017 1.0000
vn 0.0000 0.0011 1.0000
vn -0.0000 0.0017 1.0000
vn -0.0000 1.0000 0.0000
vn -0.0000 1.0000 -0.0000
vn -0.0000 1.0000 -0.0000
vn 1.0000 0.0000 -0.0000
vn 1.0000 0.0000 -0.0000
vn 1.0000 0.0000 -0.0000
vn 1.0000 0.0000 -0.0000
vn 1.0000 0.0000 -0.0000
vn 1.0000 0.0000 0.0000
vn -0.0000 1.0000 -0.0004
vn -0.0000 1.0000 -0.0004
vn -0.0000 1.0000 -0.0004
vn 0.0000 1.0000 0.0000
vn 0.0000 1.0000 0.0000
vn 0.0000 1.0000 0.0000
vn 0.0003 0.0000 -1.0000
vn 0.0003 0.0000 -1.0000
vn 0.0003 0.0000 -1.0000
vn 0.0004 0.0001 -1.0000
vn 0.0004 0.0001 -1.0000
vn 0.0004 0.0001 -1.0000
vn -0.0000 1.0000 0.0000
vn -0.0000 1.0000 -0.0000
vn -0.0000 1.0000 -0.0000
vn -0.0000 1.0000 0.0000
vn -0.0000 1.0000 -0.0000
vn -0.0000 1.0000 0.0000
vn -1.0000 0.0000 0.0000
vn -1.0000 0.0000 0.0000
vn -1.0000 0.0000 0.0000
vn -1.0000 0.0000 0.0000
vn -1.0000 0.0000 0.0000
vn -1.0000 0.0000 0.0000
vn -0.0000 1.0000 0.0000
vn -0.0000 1.0000 0.0000
vn -0.0000 1.0000 0.0000
vn -0.0000 1.0000 0.0000
vn -0.0000 1.0000 0.0000
vn -0.0000 1.0000 -0.0000
vn 1.0000 -0.0000 -0.0000
vn 1.0000 -0.0000 -0.0000
vn 1.0000 -0.0000 0.0000
vn 1.0000 -0.0000 -0.0000
vn 1.0000 -0.0000 0.0000
vn 1.0000 0.0000 0.0000
vn 0.0000 0.0011 -1.0000
vn 0.0000 0.0010 -1.0000
vn -0.0000 0.0017 -1.0000
vn 0.0000 0.0011 -1.0000
vn -0.0000 0.0017 -1.0000
vn -0.0000 0.0017 -1.0000
vn -0.0000 1.0000 0.0000
vn -0.0000 1.0000 0.0000
vn -0.0000 1.0000 0.0000
vn 1.0000 -0.0000 -0.0000
vn 1.0000 -0.0000 -0.0000
vn 1.0000 -0.0000 -0.0000
vn 1.0000 -0.0000 -0.0000
vn 1.0000 -0.0000 -0.0000
vn 1.0000 -0.0000 0.0000
vn -0.0000 1.0000 0.0004
vn -0.0000 1.0000 0.0004
vn -0.0000 1.0000 0.0004
vn 0.0000 1.0000 -0.0000
vn 0.0000 1.0000 -0.0000
vn 0.0000 1.0000 -0.0000
vn 0.0003 -0.0000 1.0000
vn 0.0003 -0.0000 1.0000
vn 0.0003 -0.0000 1.0000
vn 0.0004 0.0001 1.0000
vn 0.0004 0.0001 1.0000
vn 0.0004 0.0001 1.0000
# 252 vertex normals

vt 0.4953 0.1923 0.0000
vt -0.0006 0.1923 0.0000
vt 0.4953 0.0008 0.0000
vt -0.0006 0.0008 0.0000
vt 0.6650 0.7156 0.0000
vt 0.9862 0.7156 0.0000
vt 0.9862 0.9864 0.0000
vt 0.6650 0.9854 0.0000
vt 0.7552 0.0155 0.0000
vt 0.9802 0.0155 0.0000
vt 0.7552 0.2754 0.0000
vt 0.9802 0.2754 0.0000
vt 0.7552 0.5330 0.0000
vt 0.9802 0.5330 0.0000
vt 0.7552 0.6863 0.0000
vt 0.9802 0.6863 0.0000
vt 0.6899 0.0170 0.0000
vt 0.6989 0.6831 0.0000
vt 0.6985 0.1156 0.0000
vt 0.6899 0.5889 0.0000
vt 0.7455 0.1156 0.0000
vt 0.7459 0.6831 0.0000
vt 0.6101 0.5938 0.0000
vt 0.6438 0.5936 0.0000
vt 0.6981 0.0197 0.0000
vt 0.7452 0.0197 0.0000
vt 0.5527 0.7485 0.0000
vt 0.5527 0.9890 0.0000
vt 0.5862 0.9890 0.0000
vt 0.5862 0.7824 0.0000
vt 0.6652 0.5889 0.0000
vt 0.6652 0.0170 0.0000
vt 0.6899 0.6855 0.0000
vt 0.6652 0.6856 0.0000
vt 0.6438 0.9882 0.0000
vt 0.6101 0.9884 0.0000
vt 0.5862 0.7483 0.0000
vt 0.6650 0.7156 0.0000
vt 0.9862 0.7156 0.0000
vt 0.9862 0.9864 0.0000
vt 0.6650 0.9854 0.0000
vt 0.7552 0.2754 0.0000
vt 0.9802 0.2754 0.0000
vt 0.7552 0.5330 0.0000
vt 0.9802 0.5330 0.0000
vt 0.7552 0.6863 0.0000
vt 0.9802 0.6863 0.0000
vt 0.6985 0.1156 0.0000
vt 0.6899 0.5889 0.0000
vt 0.7455 0.1156 0.0000
vt 0.6101 0.5938 0.0000
vt 0.6438 0.5936 0.0000
vt 0.6981 0.0197 0.0000
vt 0.7452 0.0197 0.0000
vt 0.5527 0.7485 0.0000
vt 0.5527 0.9890 0.0000
vt 0.5862 0.9890 0.0000
vt 0.5862 0.7824 0.0000
vt 0.6652 0.5889 0.0000
vt 0.6899 0.6855 0.0000
vt 0.6652 0.6856 0.0000
vt 0.6438 0.9882 0.0000
vt 0.6101 0.9884 0.0000
vt 0.5862 0.7483 0.0000
vt 0.4954 0.0011 0.0000
vt 0.0019 0.0007 0.0000
vt 0.4960 1.0005 0.0000
vt 0.0025 1.0006 0.0000
vt 0.4960 1.0003 0.0000
vt 0.0021 1.0003 0.0000
vt 0.4960 0.8088 0.0000
vt 0.0021 0.8088 0.0000
vt 0.4953 0.1923 0.0000
vt -0.0006 0.1923 0.0000
vt 0.4953 0.0008 0.0000
vt -0.0006 0.0008 0.0000
vt 0.6650 0.7156 0.0000
vt 0.9862 0.7156 0.0000
vt 0.9862 0.9864 0.0000
vt 0.6650 0.9854 0.0000
vt 0.7552 0.0155 0.0000
vt 0.9802 0.0155 0.0000
vt 0.7552 0.2754 0.0000
vt 0.9802 0.2754 0.0000
vt 0.7552 0.5330 0.0000
vt 0.9802 0.5330 0.0000
vt 0.7552 0.6863 0.0000
vt 0.9802 0.6863 0.0000
vt 0.6899 0.0170 0.0000
vt 0.6989 0.6831 0.0000
vt 0.6985 0.1156 0.0000
vt 0.6899 0.5889 0.0000
vt 0.7455 0.1156 0.0000
vt 0.7459 0.6831 0.0000
vt 0.6101 0.5938 0.0000
vt 0.6438 0.5936 0.0000
vt 0.6981 0.0197 0.0000
vt 0.7452 0.0197 0.0000
vt 0.5527 0.7485 0.0000
vt 0.5527 0.9890 0.0000
vt 0.5862 0.9890 0.0000
vt 0.5862 0.7824 0.0000
vt 0.6652 0.5889 0.0000
vt 0.6652 0.0170 0.0000
vt 0.6899 0.6855 0.0000
vt 0.6652 0.6856 0.0000
vt 0.6438 0.9882 0.0000
vt 0.6101 0.9884 0.0000
vt 0.5862 0.7483 0.0000
vt 0.6650 0.7156 0.0000
vt 0.9862 0.7156 0.0000
vt 0.9862 0.9864 0.0000
vt 0.6650 0.9854 0.0000
vt 0.7552 0.2754 0.0000
vt 0.9802 0.2754 0.0000
vt 0.7552 0.5330 0.0000
vt 0.9802 0.5330 0.0000
vt 0.7552 0.6863 0.0000
vt 0.9802 0.6863 0.0000
vt 0.6985 0.1156 0.0000
vt 0.6899 0.5889 0.0000
vt 0.7455 0.1156 0.0000
vt 0.6101 0.5938 0.0000
vt 0.6438 0.5936 0.0000
vt 0.6981 0.0197 0.0000
vt 0.7452 0.0197 0.0000
vt 0.5527 0.7485 0.0000
vt 0.5527 0.9890 0.0000
vt 0.5862 0.9890 0.0000
vt 0.5862 0.7824 0.0000
vt 0.6652 0.5889 0.0000
vt 0.6899 0.6855 0.0000
vt 0.6652 0.6856 0.0000
vt 0.6438 0.9882 0.0000
vt 0.6101 0.9884 0.0000
vt 0.5862 0.7483 0.0000
vt 0.4954 0.0011 0.0000
vt 0.0019 0.0007 0.0000
vt 0.4960 1.0005 0.0000
vt 0.0025 1.0006 0.0000
vt 0.4960 1.0003 0.0000
vt 0.0021 1.0003 0.0000
vt 0.4960 0.8088 0.0000
vt 0.0021 0.8088 0.0000
# 144 texture coords

g CartTrackWallSmall
s 2
f 1/65/1 6/67/2 7/68/3 
f 1/65/4 7/68/5 2/66/6 
s 1
f 2/17/7 7/20/8 8/31/9 
f 2/17/10 8/31/11 3/32/12 
s 2
f 3/18/13 8/19/14 9/21/15 
f 3/18/16 9/21/17 4/22/18 
s 4
f 4/9/19 9/11/20 10/12/21 
f 4/9/22 10/12/23 5/10/24 
s 2
f 6/1/25 11/3/26 12/4/27 
f 6/1/28 12/4/29 7/2/30 
s 1
f 7/20/31 12/33/32 13/34/33 
f 7/20/34 13/34/35 8/31/36 
s 2
f 8/19/37 13/25/38 14/26/39 
f 8/19/40 14/26/41 9/21/42 
s 4
f 9/11/43 14/13/44 15/14/45 
f 9/11/46 15/14/47 10/12/48 
f 11/23/49 16/24/50 13/35/51 
f 11/23/52 13/35/53 12/36/54 
s 2
f 13/30/55 17/27/56 14/37/57 
s 4
f 14/13/58 17/15/59 18/16/60 
f 14/13/61 18/16/62 15/14/63 
s off
f 19/28/64 17/27/65 16/29/66 
f 16/29/67 17/27/68 13/30/69 
f 18/5/70 17/6/71 19/7/72 
f 20/8/73 18/5/74 19/7/75 
s 2
f 21/71/76 1/69/77 22/72/78 
f 22/72/79 1/69/80 2/70/81 
s 1
f 22/60/82 2/49/83 23/61/84 
f 23/61/85 2/49/86 3/59/87 
s 2
f 23/53/88 3/48/89 24/54/90 
f 24/54/91 3/48/92 4/50/93 
s 4
f 24/44/94 4/42/95 25/45/96 
f 25/45/97 4/42/98 5/43/99 
f 26/52/100 21/51/101 23/62/102 
f 23/62/103 21/51/104 22/63/105 
s 2
f 27/55/106 23/58/107 24/64/108 
s 4
f 27/46/109 24/44/110 28/47/111 
f 28/47/112 24/44/113 25/45/114 
s off
f 27/55/115 29/56/116 26/57/117 
f 27/55/118 26/57/119 23/58/120 
f 27/39/121 28/38/122 29/40/123 
f 28/38/124 30/41/125 29/40/126 
s 2
f 36/139/127 31/137/128 37/140/129 
f 37/140/130 31/137/131 32/138/132 
s 1
f 37/92/133 32/89/134 38/103/135 
f 38/103/136 32/89/137 33/104/138 
s 2
f 38/91/139 33/90/140 39/93/141 
f 39/93/142 33/90/143 34/94/144 
s 4
f 39/83/145 34/81/146 40/84/147 
f 40/84/148 34/81/149 35/82/150 
s 2
f 41/75/151 36/73/152 42/76/153 
f 42/76/154 36/73/155 37/74/156 
s 1
f 42/105/157 37/92/158 43/106/159 
f 43/106/160 37/92/161 38/103/162 
s 2
f 43/97/163 38/91/164 44/98/165 
f 44/98/166 38/91/167 39/93/168 
s 4
f 44/85/169 39/83/170 45/86/171 
f 45/86/172 39/83/173 40/84/174 
f 46/96/175 41/95/176 43/107/177 
f 43/107/178 41/95/179 42/108/180 
s 2
f 47/99/181 43/102/182 44/109/183 
s 4
f 47/87/184 44/85/185 48/88/186 
f 48/88/187 44/85/188 45/86/189 
s off
f 47/99/190 49/100/191 46/101/192 
f 47/99/193 46/101/194 43/102/195 
f 47/78/196 48/77/197 49/79/198 
f 48/77/199 50/80/200 49/79/201 
s 2
f 31/141/202 51/143/203 52/144/204 
f 31/141/205 52/144/206 32/142/207 
s 1
f 32/121/208 52/132/209 53/133/210 
f 32/121/211 53/133/212 33/131/213 
s 2
f 33/120/214 53/125/215 54/126/216 
f 33/120/217 54/126/218 34/122/219 
s 4
f 34/114/220 54/116/221 55/117/222 
f 34/114/223 55/117/224 35/115/225 
f 51/123/226 56/124/227 53/134/228 
f 51/123/229 53/134/230 52/135/231 
s 2
f 53/130/232 57/127/233 54/136/234 
s 4
f 54/116/235 57/118/236 58/119/237 
f 54/116/238 58/119/239 55/117/240 
s off
f 59/128/241 57/127/242 56/129/243 
f 56/129/244 57/127/245 53/130/246 
f 58/110/247 57/111/248 59/112/249 
f 60/113/250 58/110/251 59/112/252 
# 0 polygons - 84 triangles

