#
# object Wall_CountrySide
#

v  -6.5494 0.0000 73.8506
v  6.4820 0.0000 73.8506
v  -6.5494 0.0000 71.4476
v  6.4820 0.0000 71.4476
v  -6.5494 0.0000 -72.6861
v  6.4820 0.0000 -72.6861
v  -6.5494 0.0000 -75.1140
v  6.4820 0.0000 -75.1140
v  -6.5494 82.6996 73.8506
v  6.4820 82.6996 73.8506
v  -6.5494 82.6996 71.4476
v  6.4820 82.6996 71.4476
v  -6.5494 82.6996 -72.6861
v  6.4820 82.6996 -72.6861
v  -6.5494 82.6996 -75.1140
v  6.4820 82.6996 -75.1140
# 16 vertices

vn -0.7071 0.7071 -0.0000
vn 0.7071 0.7071 -0.0000
vn 0.7071 0.7071 -0.0000
vn -0.7071 0.7071 -0.0000
vn -0.7071 0.7071 -0.0000
vn 0.7071 0.7071 -0.0000
vn 0.7071 0.7071 -0.0000
vn -0.7071 0.7071 -0.0000
vn -0.7071 0.7071 -0.0000
vn 0.7071 0.7071 -0.0000
vn 0.7071 0.7071 -0.0000
vn -0.7071 0.7071 -0.0000
vn 0.0000 0.0000 1.0000
vn 0.0000 0.0000 1.0000
vn 0.0000 0.0000 1.0000
vn 0.0000 0.0000 1.0000
vn 1.0000 0.0000 -0.0000
vn 1.0000 0.0000 -0.0000
vn 0.7071 0.7071 -0.0000
vn 0.7071 0.7071 -0.0000
vn 1.0000 0.0000 -0.0000
vn 1.0000 0.0000 -0.0000
vn 0.7071 0.7071 -0.0000
vn 0.7071 0.7071 -0.0000
vn 1.0000 0.0000 -0.0000
vn 1.0000 0.0000 -0.0000
vn 0.7071 0.7071 -0.0000
vn 0.7071 0.7071 -0.0000
vn 0.0000 0.0000 -1.0000
vn 0.0000 0.0000 -1.0000
vn 0.0000 0.0000 -1.0000
vn 0.0000 0.0000 -1.0000
vn -1.0000 0.0000 -0.0000
vn -1.0000 0.0000 -0.0000
vn -0.7071 0.7071 -0.0000
vn -0.7071 0.7071 -0.0000
vn -1.0000 0.0000 -0.0000
vn -1.0000 0.0000 -0.0000
vn -0.7071 0.7071 -0.0000
vn -0.7071 0.7071 -0.0000
vn -1.0000 0.0000 -0.0000
vn -1.0000 0.0000 -0.0000
vn -0.7071 0.7071 -0.0000
vn -0.7071 0.7071 -0.0000
# 44 vertex normals

vt 0.0013 0.0001 0.0000
vt 0.0406 -0.0001 0.0000
vt 0.0008 0.4659 0.0000
vt 0.0420 0.4659 0.0000
vt 0.9527 0.4660 1.0113
vt 0.9511 -0.0003 0.0000
vt 0.9999 -0.0003 0.0000
vt 0.9999 0.4660 0.0000
vt 0.0420 0.5338 1.0113
vt 0.0521 0.4662 1.0113
vt 0.0524 0.5336 1.0113
vt 0.9422 0.4661 1.0113
vt 0.9418 0.5334 1.0113
vt 0.9527 0.4660 1.0113
vt 0.9530 0.5332 1.0113
vt 0.0525 -0.0001 1.0113
vt 0.9421 -0.0004 1.0113
vt 0.9523 1.0001 1.0113
vt 0.9429 1.0000 1.0113
vt 0.0539 1.0001 1.0113
vt 0.0421 0.9998 1.0113
vt 0.0406 -0.0001 0.0000
vt 0.0420 0.4659 0.0000
vt 0.9511 -0.0003 0.0000
# 24 texture coords

g Wall_CountrySide
s 1
f 9/9/1 10/23/2 12/10/3 11/11/4 
f 11/11/5 12/10/6 14/12/7 13/13/8 
f 13/13/9 14/12/10 16/14/11 15/15/12 
s 8
f 1/1/13 2/2/14 10/4/15 9/3/16 
s 1
f 2/22/17 4/16/18 12/10/19 10/23/20 
f 4/16/21 6/17/22 14/12/23 12/10/24 
f 6/17/25 8/24/26 16/14/27 14/12/28 
s 32
f 8/6/29 7/7/30 15/8/31 16/5/32 
s 1
f 7/18/33 5/19/34 13/13/35 15/15/36 
f 5/19/37 3/20/38 11/11/39 13/13/40 
f 3/20/41 1/21/42 9/9/43 11/11/44 
# 11 polygons

