#
# object left_rail
#

v  -0.7033 0.0562 3.6332
v  -0.6798 0.0705 3.6332
v  -0.6799 0.1017 3.6332
v  -0.6986 0.1197 3.6332
v  -0.6987 0.1398 3.6332
v  -0.6792 0.1567 3.6332
v  -0.6372 0.1567 3.6332
v  -0.6177 0.1398 3.6332
v  -0.6177 0.1197 3.6332
v  -0.6365 0.1017 3.6332
v  -0.6360 0.0705 3.6332
v  -0.6125 0.0562 3.6332
v  -0.7033 0.0562 -0.0071
v  -0.6798 0.0705 -0.0071
v  -0.6799 0.1017 -0.0071
v  -0.6986 0.1197 -0.0071
v  -0.6987 0.1398 -0.0071
v  -0.6792 0.1567 -0.0071
v  -0.6372 0.1567 -0.0071
v  -0.6177 0.1398 -0.0071
v  -0.6177 0.1197 -0.0071
v  -0.6365 0.1017 -0.0071
v  -0.6360 0.0705 -0.0071
v  -0.6125 0.0562 -0.0071
v  -0.7033 0.0562 -3.3399
v  -0.6798 0.0705 -3.3399
v  -0.6799 0.1017 -3.3399
v  -0.6986 0.1197 -3.3399
v  -0.6987 0.1398 -3.3399
v  -0.6792 0.1567 -3.3399
v  -0.6372 0.1567 -3.3399
v  -0.6177 0.1398 -3.3399
v  -0.6177 0.1197 -3.3399
v  -0.6365 0.1017 -3.3399
v  -0.6360 0.0705 -3.3399
v  -0.6125 0.0562 -3.3399
v  0.6205 0.0562 3.6332
v  0.6440 0.0705 3.6332
v  0.6439 0.1017 3.6332
v  0.6251 0.1197 3.6332
v  0.6251 0.1398 3.6332
v  0.6446 0.1567 3.6332
v  0.6866 0.1567 3.6332
v  0.7061 0.1398 3.6332
v  0.7060 0.1197 3.6332
v  0.6873 0.1017 3.6332
v  0.6878 0.0705 3.6332
v  0.7113 0.0562 3.6332
v  0.6205 0.0562 -0.0071
v  0.6440 0.0705 -0.0071
v  0.6439 0.1017 -0.0071
v  0.6251 0.1197 -0.0071
v  0.6251 0.1398 -0.0071
v  0.6446 0.1567 -0.0071
v  0.6866 0.1567 -0.0071
v  0.7061 0.1398 -0.0071
v  0.7060 0.1197 -0.0071
v  0.6873 0.1017 -0.0071
v  0.6878 0.0705 -0.0071
v  0.7113 0.0562 -0.0071
v  0.6205 0.0562 -3.3399
v  0.6440 0.0705 -3.3399
v  0.6439 0.1017 -3.3399
v  0.6251 0.1197 -3.3399
v  0.6251 0.1398 -3.3399
v  0.6446 0.1567 -3.3399
v  0.6866 0.1567 -3.3399
v  0.7061 0.1398 -3.3399
v  0.7060 0.1197 -3.3399
v  0.6873 0.1017 -3.3399
v  0.6878 0.0705 -3.3399
v  0.7113 0.0562 -3.3399
# 72 vertices

vn -0.5198 0.8543 -0.0000
vn -0.5198 0.8543 -0.0000
vn -0.8725 0.4886 -0.0000
vn -0.8725 0.4886 -0.0000
vn -0.8725 0.4886 -0.0000
vn -0.8725 0.4886 -0.0000
vn -0.9196 -0.3930 -0.0000
vn -0.9196 -0.3930 -0.0000
vn -0.9196 -0.3930 -0.0000
vn -0.9196 -0.3930 -0.0000
vn -0.9192 -0.3938 -0.0000
vn -0.9192 -0.3938 -0.0000
vn -0.9192 -0.3938 -0.0000
vn -0.9192 -0.3938 -0.0000
vn -0.9107 0.4131 -0.0000
vn -0.9107 0.4131 -0.0000
vn -0.9107 0.4131 -0.0000
vn -0.9107 0.4131 -0.0000
vn -0.3495 0.9369 -0.0000
vn -0.3495 0.9369 -0.0000
vn -0.3495 0.9369 -0.0000
vn -0.3495 0.9369 -0.0000
vn 0.3495 0.9369 -0.0000
vn 0.3495 0.9369 -0.0000
vn 0.3495 0.9369 -0.0000
vn 0.3495 0.9369 -0.0000
vn 0.9097 0.4154 -0.0000
vn 0.9097 0.4154 -0.0000
vn 0.9097 0.4154 -0.0000
vn 0.9097 0.4154 -0.0000
vn 0.9197 -0.3927 -0.0000
vn 0.9197 -0.3927 -0.0000
vn 0.9197 -0.3927 -0.0000
vn 0.9197 -0.3927 -0.0000
vn 0.9228 -0.3853 -0.0000
vn 0.9228 -0.3853 -0.0000
vn 0.9228 -0.3853 -0.0000
vn 0.9228 -0.3853 -0.0000
vn 0.8678 0.4970 -0.0000
vn 0.8678 0.4970 -0.0000
vn 0.8678 0.4970 -0.0000
vn 0.8678 0.4970 -0.0000
vn 0.5198 0.8543 -0.0000
vn 0.5198 0.8543 -0.0000
vn -0.5198 0.8543 -0.0000
vn -0.5198 0.8543 -0.0000
vn -0.8725 0.4886 -0.0000
vn -0.8725 0.4886 -0.0000
vn -0.8725 0.4886 -0.0000
vn -0.8725 0.4886 -0.0000
vn -0.9196 -0.3930 -0.0000
vn -0.9196 -0.3930 -0.0000
vn -0.9196 -0.3930 -0.0000
vn -0.9196 -0.3930 -0.0000
vn -0.9192 -0.3938 -0.0000
vn -0.9192 -0.3938 -0.0000
vn -0.9192 -0.3938 -0.0000
vn -0.9192 -0.3938 -0.0000
vn -0.9107 0.4131 -0.0000
vn -0.9107 0.4131 -0.0000
vn -0.9107 0.4131 -0.0000
vn -0.9107 0.4131 -0.0000
vn -0.3495 0.9369 -0.0000
vn -0.3495 0.9369 -0.0000
vn -0.3495 0.9369 -0.0000
vn -0.3495 0.9369 -0.0000
vn 0.3495 0.9369 -0.0000
vn 0.3495 0.9369 -0.0000
vn 0.3495 0.9369 -0.0000
vn 0.3495 0.9369 -0.0000
vn 0.9097 0.4154 -0.0000
vn 0.9097 0.4154 -0.0000
vn 0.9097 0.4154 -0.0000
vn 0.9097 0.4154 -0.0000
vn 0.9197 -0.3927 -0.0000
vn 0.9197 -0.3927 -0.0000
vn 0.9197 -0.3927 -0.0000
vn 0.9197 -0.3927 -0.0000
vn 0.9228 -0.3853 -0.0000
vn 0.9228 -0.3853 -0.0000
vn 0.9228 -0.3853 -0.0000
vn 0.9228 -0.3853 -0.0000
vn 0.8678 0.4970 -0.0000
vn 0.8678 0.4970 -0.0000
vn 0.8678 0.4970 -0.0000
vn 0.8678 0.4970 -0.0000
vn 0.5198 0.8543 -0.0000
vn 0.5198 0.8543 -0.0000
vn -0.5198 0.8543 -0.0000
vn -0.5198 0.8543 -0.0000
vn -0.8725 0.4886 -0.0000
vn -0.8725 0.4886 -0.0000
vn -0.8725 0.4886 -0.0000
vn -0.8725 0.4886 -0.0000
vn -0.9190 -0.3942 -0.0000
vn -0.9190 -0.3942 -0.0000
vn -0.9190 -0.3942 -0.0000
vn -0.9190 -0.3942 -0.0000
vn -0.9197 -0.3927 -0.0000
vn -0.9197 -0.3927 -0.0000
vn -0.9197 -0.3927 -0.0000
vn -0.9197 -0.3927 -0.0000
vn -0.9097 0.4154 -0.0000
vn -0.9097 0.4154 -0.0000
vn -0.9097 0.4154 -0.0000
vn -0.9097 0.4154 -0.0000
vn -0.3495 0.9369 -0.0000
vn -0.3495 0.9369 -0.0000
vn -0.3495 0.9369 -0.0000
vn -0.3495 0.9369 -0.0000
vn 0.3495 0.9369 -0.0000
vn 0.3495 0.9369 -0.0000
vn 0.3495 0.9369 -0.0000
vn 0.3495 0.9369 -0.0000
vn 0.9107 0.4131 -0.0000
vn 0.9107 0.4131 -0.0000
vn 0.9107 0.4131 -0.0000
vn 0.9107 0.4131 -0.0000
vn 0.9192 -0.3938 -0.0000
vn 0.9192 -0.3938 -0.0000
vn 0.9192 -0.3938 -0.0000
vn 0.9192 -0.3938 -0.0000
vn 0.9233 -0.3841 -0.0000
vn 0.9233 -0.3841 -0.0000
vn 0.9233 -0.3841 -0.0000
vn 0.9233 -0.3841 -0.0000
vn 0.8678 0.4970 -0.0000
vn 0.8678 0.4970 -0.0000
vn 0.8678 0.4970 -0.0000
vn 0.8678 0.4970 -0.0000
vn 0.5198 0.8543 -0.0000
vn 0.5198 0.8543 -0.0000
vn -0.5198 0.8543 -0.0000
vn -0.5198 0.8543 -0.0000
vn -0.8725 0.4886 -0.0000
vn -0.8725 0.4886 -0.0000
vn -0.8725 0.4886 -0.0000
vn -0.8725 0.4886 -0.0000
vn -0.9190 -0.3942 -0.0000
vn -0.9190 -0.3942 -0.0000
vn -0.9190 -0.3942 -0.0000
vn -0.9190 -0.3942 -0.0000
vn -0.9197 -0.3927 -0.0000
vn -0.9197 -0.3927 -0.0000
vn -0.9197 -0.3927 -0.0000
vn -0.9197 -0.3927 -0.0000
vn -0.9097 0.4154 -0.0000
vn -0.9097 0.4154 -0.0000
vn -0.9097 0.4154 -0.0000
vn -0.9097 0.4154 -0.0000
vn -0.3495 0.9369 -0.0000
vn -0.3495 0.9369 -0.0000
vn -0.3495 0.9369 -0.0000
vn -0.3495 0.9369 -0.0000
vn 0.3495 0.9369 -0.0000
vn 0.3495 0.9369 -0.0000
vn 0.3495 0.9369 -0.0000
vn 0.3495 0.9369 -0.0000
vn 0.9107 0.4131 -0.0000
vn 0.9107 0.4131 -0.0000
vn 0.9107 0.4131 -0.0000
vn 0.9107 0.4131 -0.0000
vn 0.9192 -0.3938 -0.0000
vn 0.9192 -0.3938 -0.0000
vn 0.9192 -0.3938 -0.0000
vn 0.9192 -0.3938 -0.0000
vn 0.9233 -0.3841 -0.0000
vn 0.9233 -0.3841 -0.0000
vn 0.9233 -0.3841 -0.0000
vn 0.9233 -0.3841 -0.0000
vn 0.8678 0.4970 -0.0000
vn 0.8678 0.4970 -0.0000
vn 0.8678 0.4970 -0.0000
vn 0.8678 0.4970 -0.0000
vn 0.5198 0.8543 -0.0000
vn 0.5198 0.8543 -0.0000
# 176 vertex normals

vt 0.0000 -6.4385 0.0000
vt 0.0909 -6.4385 0.0000
vt 0.1818 -6.4385 0.0000
vt 0.2727 -6.4385 0.0000
vt 0.3636 -6.4385 0.0000
vt 0.4545 -6.4385 0.0000
vt 0.5455 -6.4385 0.0000
vt 0.6364 -6.4385 0.0000
vt 0.7273 -6.4385 0.0000
vt 0.8182 -6.4385 0.0000
vt 0.9091 -6.4385 0.0000
vt 1.0000 -6.4385 0.0000
vt 0.0000 0.5000 0.0000
vt 0.0909 0.5000 0.0000
vt 0.1818 0.5000 0.0000
vt 0.2727 0.5000 0.0000
vt 0.3636 0.5000 0.0000
vt 0.4545 0.5000 0.0000
vt 0.5455 0.5000 0.0000
vt 0.6364 0.5000 0.0000
vt 0.7273 0.5000 0.0000
vt 0.8182 0.5000 0.0000
vt 0.9091 0.5000 0.0000
vt 1.0000 0.5000 0.0000
vt 0.0000 7.4385 0.0000
vt 0.0909 7.4385 0.0000
vt 0.1818 7.4385 0.0000
vt 0.2727 7.4385 0.0000
vt 0.3636 7.4385 0.0000
vt 0.4545 7.4385 0.0000
vt 0.5455 7.4385 0.0000
vt 0.6364 7.4385 0.0000
vt 0.7273 7.4385 0.0000
vt 0.8182 7.4385 0.0000
vt 0.9091 7.4385 0.0000
vt 1.0000 7.4385 0.0000
vt 0.0000 -6.4385 0.0000
vt 0.0909 -6.4385 0.0000
vt 0.1818 -6.4385 0.0000
vt 0.2727 -6.4385 0.0000
vt 0.3636 -6.4385 0.0000
vt 0.4545 -6.4385 0.0000
vt 0.5455 -6.4385 0.0000
vt 0.6364 -6.4385 0.0000
vt 0.7273 -6.4385 0.0000
vt 0.8182 -6.4385 0.0000
vt 0.9091 -6.4385 0.0000
vt 1.0000 -6.4385 0.0000
vt 0.0000 0.5000 0.0000
vt 0.0909 0.5000 0.0000
vt 0.1818 0.5000 0.0000
vt 0.2727 0.5000 0.0000
vt 0.3636 0.5000 0.0000
vt 0.4545 0.5000 0.0000
vt 0.5455 0.5000 0.0000
vt 0.6364 0.5000 0.0000
vt 0.7273 0.5000 0.0000
vt 0.8182 0.5000 0.0000
vt 0.9091 0.5000 0.0000
vt 1.0000 0.5000 0.0000
vt 0.0000 7.4385 0.0000
vt 0.0909 7.4385 0.0000
vt 0.1818 7.4385 0.0000
vt 0.2727 7.4385 0.0000
vt 0.3636 7.4385 0.0000
vt 0.4545 7.4385 0.0000
vt 0.5455 7.4385 0.0000
vt 0.6364 7.4385 0.0000
vt 0.7273 7.4385 0.0000
vt 0.8182 7.4385 0.0000
vt 0.9091 7.4385 0.0000
vt 1.0000 7.4385 0.0000
# 72 texture coords

g left_rail
s 3
f 13/13/1 1/1/2 2/2/3 14/14/4 
f 14/14/5 2/2/6 3/3/7 15/15/8 
f 15/15/9 3/3/10 4/4/11 16/16/12 
f 16/16/13 4/4/14 5/5/15 17/17/16 
f 17/17/17 5/5/18 6/6/19 18/18/20 
f 18/18/21 6/6/22 7/7/23 19/19/24 
f 19/19/25 7/7/26 8/8/27 20/20/28 
f 20/20/29 8/8/30 9/9/31 21/21/32 
f 21/21/33 9/9/34 10/10/35 22/22/36 
f 22/22/37 10/10/38 11/11/39 23/23/40 
f 23/23/41 11/11/42 12/12/43 24/24/44 
f 25/25/45 13/13/46 14/14/47 26/26/48 
f 26/26/49 14/14/50 15/15/51 27/27/52 
f 27/27/53 15/15/54 16/16/55 28/28/56 
f 28/28/57 16/16/58 17/17/59 29/29/60 
f 29/29/61 17/17/62 18/18/63 30/30/64 
f 30/30/65 18/18/66 19/19/67 31/31/68 
f 31/31/69 19/19/70 20/20/71 32/32/72 
f 32/32/73 20/20/74 21/21/75 33/33/76 
f 33/33/77 21/21/78 22/22/79 34/34/80 
f 34/34/81 22/22/82 23/23/83 35/35/84 
f 35/35/85 23/23/86 24/24/87 36/36/88 
f 49/49/89 37/37/90 38/38/91 50/50/92 
f 50/50/93 38/38/94 39/39/95 51/51/96 
f 51/51/97 39/39/98 40/40/99 52/52/100 
f 52/52/101 40/40/102 41/41/103 53/53/104 
f 53/53/105 41/41/106 42/42/107 54/54/108 
f 54/54/109 42/42/110 43/43/111 55/55/112 
f 55/55/113 43/43/114 44/44/115 56/56/116 
f 56/56/117 44/44/118 45/45/119 57/57/120 
f 57/57/121 45/45/122 46/46/123 58/58/124 
f 58/58/125 46/46/126 47/47/127 59/59/128 
f 59/59/129 47/47/130 48/48/131 60/60/132 
f 61/61/133 49/49/134 50/50/135 62/62/136 
f 62/62/137 50/50/138 51/51/139 63/63/140 
f 63/63/141 51/51/142 52/52/143 64/64/144 
f 64/64/145 52/52/146 53/53/147 65/65/148 
f 65/65/149 53/53/150 54/54/151 66/66/152 
f 66/66/153 54/54/154 55/55/155 67/67/156 
f 67/67/157 55/55/158 56/56/159 68/68/160 
f 68/68/161 56/56/162 57/57/163 69/69/164 
f 69/69/165 57/57/166 58/58/167 70/70/168 
f 70/70/169 58/58/170 59/59/171 71/71/172 
f 71/71/173 59/59/174 60/60/175 72/72/176 
# 44 polygons

#
# object Main_Road_0075_single_lane
#

v  -0.7073 0.0032 3.0955
v  -3.8809 0.0666 3.0148
v  -0.7291 0.1332 3.0148
v  -3.8809 0.0038 3.0955
v  -3.8809 0.0666 -2.8137
v  -0.7291 0.1332 -2.8137
v  -3.8809 0.0038 -2.9046
v  -0.7090 0.0032 -2.9046
v  -6.6595 0.0022 3.0955
v  -6.6641 0.0022 -2.9049
v  0.5843 0.1385 3.0148
v  0.6126 0.0023 3.0955
v  0.5843 0.1385 -2.8137
v  0.6080 0.0023 -2.9046
v  -0.5919 0.1384 3.0148
v  -0.6056 0.0022 3.0955
v  -0.5919 0.1384 -2.8137
v  -0.6065 0.0022 -2.9046
v  6.5394 0.0028 3.0955
v  3.9358 0.0713 3.0148
v  3.9358 0.0023 3.0955
v  3.9358 0.0713 -2.8137
v  6.5591 0.0028 -2.9049
v  3.9358 0.0023 -2.9046
v  0.7447 0.1384 3.0148
v  0.7183 0.0022 3.0955
v  0.7447 0.1384 -2.8137
v  0.7230 0.0022 -2.9046
v  -7.0472 0.0022 3.0955
v  -7.0472 0.0022 -2.9049
v  -6.6595 0.0022 3.0178
v  -6.6641 0.0022 -2.7924
v  -6.6595 0.0022 -0.0071
v  -3.8809 0.0666 0.0382
v  7.0472 0.0028 3.0955
v  7.0472 0.0028 -2.9049
v  6.5394 0.0028 3.0108
v  6.5591 0.0028 -2.8161
v  3.9358 0.0713 -0.0056
v  6.5394 0.0028 -0.0000
# 40 vertices

vn -0.0120 0.9458 0.3245
vn -0.0109 0.5327 0.8462
vn -0.0182 0.8629 0.5051
vn -0.0120 0.9458 0.3245
vn -0.0002 0.7892 0.6141
vn -0.0109 0.5327 0.8462
vn -0.0086 0.8195 -0.5730
vn -0.0116 0.8804 -0.4741
vn 0.0001 0.5731 -0.8195
vn -0.0086 0.8195 -0.5730
vn -0.0164 0.9554 -0.2948
vn -0.0116 0.8804 -0.4741
vn -0.0114 0.9999 0.0072
vn -0.0002 0.7892 0.6141
vn -0.0120 0.9458 0.3245
vn -0.0113 0.9999 -0.0072
vn -0.0164 0.9554 -0.2948
vn -0.0086 0.8195 -0.5730
vn 0.9863 0.1651 -0.0003
vn 0.9863 0.1652 -0.0003
vn 0.9882 0.1531 -0.0000
vn 0.9863 0.1651 -0.0003
vn 0.9882 0.1531 -0.0000
vn 0.9883 0.1528 -0.0000
vn -0.0001 0.8612 0.5083
vn -0.0000 0.5097 0.8603
vn -0.0001 0.8534 0.5212
vn -0.0001 0.8612 0.5083
vn -0.0000 0.5098 0.8603
vn -0.0000 0.5097 0.8603
vn -0.0001 0.8748 -0.4846
vn -0.0001 0.8534 0.5212
vn -0.0001 0.8705 -0.4921
vn -0.0001 0.8748 -0.4846
vn -0.0001 0.8612 0.5083
vn -0.0001 0.8534 0.5212
vn -0.0000 0.5551 -0.8318
vn -0.0001 0.8705 -0.4921
vn -0.0000 0.5551 -0.8318
vn -0.0000 0.5551 -0.8318
vn -0.0001 0.8748 -0.4846
vn -0.0001 0.8705 -0.4921
vn 0.9792 0.2030 -0.0008
vn 0.9792 0.2030 -0.0008
vn 0.9792 0.2030 -0.0008
vn 0.9852 0.1714 -0.0000
vn 0.9852 0.1714 -0.0000
vn 0.9852 0.1714 -0.0000
vn -0.9943 0.1065 0.0001
vn -0.9943 0.1065 0.0001
vn -0.9943 0.1065 0.0001
vn -0.9950 0.1001 -0.0000
vn -0.9950 0.1001 -0.0000
vn -0.9950 0.1001 -0.0000
vn 0.0170 0.9391 0.3432
vn 0.0077 0.7567 0.6537
vn 0.0129 0.9999 0.0084
vn -0.0001 0.7965 -0.6046
vn 0.0126 0.9479 -0.3182
vn 0.0128 0.9999 -0.0084
vn 0.0117 0.8575 0.5143
vn 0.0077 0.7567 0.6537
vn 0.0170 0.9391 0.3432
vn 0.0117 0.8575 0.5143
vn -0.0000 0.5098 0.8603
vn 0.0077 0.7567 0.6537
vn 0.0114 0.5605 -0.8281
vn 0.0126 0.9479 -0.3182
vn -0.0001 0.7965 -0.6046
vn 0.0114 0.5605 -0.8281
vn 0.0183 0.8722 -0.4888
vn 0.0126 0.9479 -0.3182
vn -0.9874 0.1582 -0.0008
vn -0.9875 0.1578 -0.0008
vn -0.9819 0.1896 -0.0000
vn -0.9874 0.1582 -0.0008
vn -0.9819 0.1896 -0.0000
vn -0.9817 0.1903 -0.0000
vn -0.0116 0.9999 0.0000
vn -0.0164 0.9554 -0.2948
vn -0.0113 0.9999 -0.0072
vn -0.0114 0.9999 0.0072
vn -0.0120 0.9458 0.3245
vn -0.0116 0.9999 -0.0000
vn 0.0000 1.0000 -0.0000
vn -0.0114 0.9999 0.0072
vn -0.0116 0.9999 -0.0000
vn 0.0000 1.0000 -0.0000
vn -0.0116 0.9999 0.0000
vn -0.0113 0.9999 -0.0072
vn -0.0116 0.9999 -0.0000
vn -0.0221 0.9998 0.0000
vn -0.0116 0.9999 0.0000
vn -0.0116 0.9999 -0.0000
vn -0.0120 0.9458 0.3245
vn -0.0221 0.9998 0.0000
vn -0.0116 0.9999 0.0000
vn -0.0116 0.9999 0.0000
vn -0.0221 0.9998 0.0000
vn -0.0116 0.9999 0.0000
vn -0.0221 0.9998 0.0000
vn -0.0164 0.9554 -0.2948
vn -0.0221 0.9998 0.0000
vn -0.0120 0.9458 0.3245
vn -0.0182 0.8629 0.5051
vn -0.0221 0.9998 0.0000
vn -0.0182 0.8629 0.5051
vn -0.0116 0.8804 -0.4741
vn -0.0221 0.9998 0.0000
vn -0.0116 0.8804 -0.4741
vn -0.0164 0.9554 -0.2948
vn 0.0000 1.0000 -0.0000
vn -0.0116 0.9999 -0.0000
vn -0.0116 0.9999 0.0000
vn 0.0000 1.0000 -0.0000
vn -0.0116 0.9999 0.0000
vn -0.0116 0.9999 0.0000
vn 0.0000 1.0000 -0.0000
vn 0.0000 1.0000 -0.0000
vn -0.0116 0.9999 0.0000
vn 0.0000 1.0000 -0.0000
vn 0.0132 0.9999 -0.0000
vn 0.0129 0.9999 0.0084
vn 0.0132 0.9999 0.0000
vn 0.0132 0.9999 -0.0000
vn 0.0000 1.0000 -0.0000
vn 0.0000 1.0000 -0.0000
vn 0.0128 0.9999 -0.0084
vn 0.0130 0.9999 0.0000
vn 0.0000 1.0000 -0.0000
vn 0.0130 0.9999 0.0000
vn 0.0132 0.9999 0.0000
vn 0.0000 1.0000 -0.0000
vn 0.0000 1.0000 -0.0000
vn 0.0132 0.9999 0.0000
vn 0.0130 0.9999 0.0000
vn 0.0128 0.9999 -0.0084
vn 0.0126 0.9479 -0.3182
vn 0.0132 0.9999 -0.0000
vn 0.0170 0.9391 0.3432
vn 0.0129 0.9999 0.0084
vn 0.0132 0.9999 -0.0000
vn 0.0236 0.9997 0.0000
vn 0.0170 0.9391 0.3432
vn 0.0132 0.9999 -0.0000
vn 0.0132 0.9999 0.0000
vn 0.0236 0.9997 0.0000
vn 0.0132 0.9999 0.0000
vn 0.0130 0.9999 0.0000
vn 0.0236 0.9997 0.0000
vn 0.0236 0.9997 0.0000
vn 0.0130 0.9999 0.0000
vn 0.0126 0.9479 -0.3182
vn 0.0126 0.9479 -0.3182
vn 0.0183 0.8722 -0.4888
vn 0.0236 0.9997 0.0000
vn 0.0236 0.9997 0.0000
vn 0.0117 0.8575 0.5143
vn 0.0170 0.9391 0.3432
vn 0.0236 0.9997 0.0000
vn 0.0183 0.8722 -0.4888
vn 0.0117 0.8575 0.5143
# 162 vertex normals

vt 0.0453 0.8958 0.0000
vt 0.0000 0.8724 0.0000
vt 0.9634 0.8958 0.0000
vt 1.0000 0.8724 0.0000
vt 0.0444 1.1198 0.0000
vt 0.0000 1.1381 0.0000
vt 0.9606 1.1198 0.0000
vt 1.0000 1.1381 0.0000
vt 0.0444 1.1198 0.0000
vt 0.0000 1.1381 0.0000
vt 0.9606 1.1198 0.0000
vt 1.0000 1.1381 0.0000
vt 0.0000 0.0101 0.0000
vt 0.0293 0.5427 0.0000
vt 0.0585 0.0405 0.0000
vt 0.0000 0.5414 0.0000
vt 0.9755 0.5387 0.0000
vt 0.9469 0.0406 0.0000
vt 1.0000 0.5414 0.0000
vt 1.0029 0.0087 0.0000
vt 0.0000 0.9454 0.0000
vt 1.0000 0.9454 0.0000
vt 0.9903 0.9460 0.0000
vt 0.0104 0.9444 0.0000
vt -0.0047 1.0047 0.0000
vt 1.0009 1.0009 0.0000
vt 0.5000 0.5414 0.0000
vt 0.5000 0.9463 0.0000
vt -0.0014 0.0866 0.0000
vt 0.0411 0.5414 0.0000
vt 0.0000 0.5414 0.0000
vt 0.9559 0.5414 0.0000
vt 0.9981 0.0866 0.0000
vt 1.0000 0.5414 0.0000
vt 0.0372 1.0687 0.0000
vt -0.0015 1.0914 0.0000
vt 0.9519 1.0689 0.0000
vt 1.0000 1.0896 0.0000
vt 0.0000 0.0009 0.0000
vt 0.0143 0.0857 0.0000
vt 0.5000 0.0857 0.0000
vt 0.9991 0.0009 0.0000
vt 0.9857 0.0857 0.0000
vt 0.5000 0.5414 0.0000
# 44 texture coords

g Main_Road_0075_single_lane
s 1
f 74/86/177 73/85/178 75/87/179 
f 74/86/180 76/88/181 73/85/182 
f 79/91/183 78/90/184 80/92/185 
f 79/91/186 77/89/187 78/90/188 
f 81/93/189 76/88/190 74/86/191 
f 82/94/192 77/89/193 79/91/194 
s 2
f 75/87/195 73/85/196 80/92/197 
f 75/87/198 80/92/199 78/90/200 
s 1
f 87/77/201 84/74/202 83/73/203 
f 87/77/204 88/78/205 84/74/206 
f 89/79/207 83/73/208 85/75/209 
f 89/79/210 87/77/211 83/73/212 
f 90/80/213 85/75/214 86/76/215 
f 90/80/216 89/79/217 85/75/218 
s off
f 83/73/219 84/74/220 86/76/221 
f 85/75/222 83/73/223 86/76/224 
f 89/83/225 90/84/226 88/82/227 
f 89/83/228 88/82/229 87/81/230 
s 1
f 92/102/231 93/103/232 91/101/233 
f 96/106/234 94/104/235 95/105/236 
f 97/107/237 93/103/238 92/102/239 
f 97/107/240 98/108/241 93/103/242 
f 100/110/243 94/104/244 96/106/245 
f 100/110/246 99/109/247 94/104/248 
s 4
f 99/109/249 100/110/250 98/108/251 
f 99/109/252 98/108/253 97/107/254 
s 1
f 104/95/255 77/89/256 82/94/257 
f 81/93/258 74/86/259 103/96/260 
f 101/97/261 81/93/262 103/96/263 
f 102/98/264 104/95/265 82/94/266 
f 103/96/267 106/99/268 105/100/269 
f 103/96/270 74/86/271 106/99/272 
f 104/95/273 105/100/274 106/99/275 
f 104/95/276 106/99/277 77/89/278 
f 106/99/279 74/86/280 75/87/281 
f 106/99/282 75/87/283 78/90/284 
f 106/99/285 78/90/286 77/89/287 
f 101/97/288 103/96/289 105/100/290 
f 102/98/291 105/100/292 104/95/293 
f 102/98/294 101/97/295 105/100/296 
f 107/111/297 109/112/298 91/101/299 
f 112/113/300 109/112/301 107/111/302 
f 108/114/303 95/105/304 110/115/305 
f 108/114/306 110/115/307 112/113/308 
f 107/111/309 108/114/310 112/113/311 
f 110/115/312 95/105/313 94/104/314 
f 109/112/315 92/102/316 91/101/317 
f 109/112/318 111/116/319 92/102/320 
f 109/112/321 112/113/322 111/116/323 
f 112/113/324 110/115/325 111/116/326 
f 111/116/327 110/115/328 94/104/329 
f 94/104/330 99/109/331 111/116/332 
f 111/116/333 97/107/334 92/102/335 
f 111/116/336 99/109/337 97/107/338 
# 0 polygons - 54 triangles

