#
# object plastic_barrier
#

v  0.0002 0.2189 78.7392
v  0.0002 39.5890 78.7392
v  0.0002 0.2189 -78.7411
v  0.0002 39.5890 -78.7411
# 4 vertices

vn -1.0000 -0.0000 -0.0000
vn -1.0000 -0.0000 -0.0000
vn -1.0000 -0.0000 -0.0000
vn -1.0000 -0.0000 -0.0000
# 4 vertex normals

vt 1.0000 0.0000 0.0000
vt 1.0000 1.0000 0.0000
vt 0.0000 -0.0000 0.0000
vt 0.0000 1.0000 0.0000
# 4 texture coords

g plastic_barrier
s 1
f 3/3/1 1/1/2 2/2/3 4/4/4 
# 1 polygons

#
# object plastic_barrier_pole
#

v  0.2952 -1.8245 -0.0000
v  0.1476 -1.8245 -0.2557
v  -0.1477 -1.8245 -0.2557
v  -0.2953 -1.8245 -0.0000
v  -0.1477 -1.8245 0.2557
v  0.1476 -1.8245 0.2557
v  0.2952 39.6040 0.0000
v  0.1476 39.6040 -0.2557
v  -0.1477 39.6040 -0.2557
v  -0.2953 39.6040 0.0000
v  -0.1477 39.6040 0.2557
v  0.1476 39.6040 0.2557
v  0.4323 39.6749 0.0000
v  0.2161 39.6749 -0.3745
v  -0.2163 39.6749 -0.3745
v  -0.4325 39.6749 0.0000
v  -0.2163 39.6749 0.3745
v  0.2161 39.6749 0.3745
v  0.4323 40.5800 0.0000
v  0.2161 40.5800 -0.3745
v  -0.2163 40.5800 -0.3745
v  -0.4325 40.5800 0.0000
v  -0.2163 40.5800 0.3745
v  0.2161 40.5800 0.3745
v  0.6039 40.6328 0.0000
v  0.3019 40.6328 -0.5230
v  -0.3020 40.6328 -0.5230
v  -0.6040 40.6328 0.0000
v  -0.3020 40.6328 0.5230
v  0.3019 40.6328 0.5230
v  0.6039 41.0642 0.0000
v  0.3019 41.0642 -0.5230
v  -0.3020 41.0642 -0.5230
v  -0.6040 41.0642 0.0000
v  -0.3020 41.0642 0.5230
v  0.3019 41.0642 0.5230
v  0.3367 41.2370 -0.0000
v  0.1683 41.2370 -0.2916
v  -0.1684 41.2370 -0.2916
v  -0.3368 41.2370 -0.0000
v  -0.1684 41.2370 0.2916
v  0.1683 41.2370 0.2916
# 42 vertices

vn 1.0000 -0.0000 0.0000
vn 0.5000 0.0000 -0.8660
vn 0.3960 -0.6106 -0.6859
vn 0.7920 -0.6106 0.0000
vn 0.5000 0.0000 -0.8660
vn -0.5000 0.0000 -0.8660
vn -0.3960 -0.6106 -0.6859
vn 0.3960 -0.6106 -0.6859
vn -0.5000 0.0000 -0.8660
vn -1.0000 0.0000 0.0000
vn -0.7920 -0.6106 0.0000
vn -0.3960 -0.6106 -0.6859
vn -1.0000 0.0000 0.0000
vn -0.5000 -0.0000 0.8660
vn -0.3960 -0.6106 0.6859
vn -0.7920 -0.6106 0.0000
vn -0.5000 -0.0000 0.8660
vn 0.5000 -0.0000 0.8660
vn 0.3960 -0.6106 0.6859
vn -0.3960 -0.6106 0.6859
vn 0.5000 -0.0000 0.8660
vn 1.0000 -0.0000 0.0000
vn 0.7920 -0.6106 0.0000
vn 0.3960 -0.6106 0.6859
vn 0.7920 -0.6106 0.0000
vn 0.3960 -0.6106 -0.6859
vn 0.4446 -0.4575 -0.7701
vn 0.8892 -0.4575 0.0000
vn 0.3960 -0.6106 -0.6859
vn -0.3960 -0.6106 -0.6859
vn -0.4446 -0.4575 -0.7701
vn 0.4446 -0.4575 -0.7701
vn -0.3960 -0.6106 -0.6859
vn -0.7920 -0.6106 0.0000
vn -0.8892 -0.4575 0.0000
vn -0.4446 -0.4575 -0.7701
vn -0.7920 -0.6106 0.0000
vn -0.3960 -0.6106 0.6859
vn -0.4446 -0.4575 0.7701
vn -0.8892 -0.4575 0.0000
vn -0.3960 -0.6106 0.6859
vn 0.3960 -0.6106 0.6859
vn 0.4446 -0.4575 0.7701
vn -0.4446 -0.4575 0.7701
vn 0.3960 -0.6106 0.6859
vn 0.7920 -0.6106 0.0000
vn 0.8892 -0.4575 0.0000
vn 0.4446 -0.4575 0.7701
vn 0.8892 -0.4575 0.0000
vn 0.4446 -0.4575 -0.7701
vn 0.3545 -0.7051 -0.6141
vn 0.7091 -0.7051 0.0000
vn 0.4446 -0.4575 -0.7701
vn -0.4446 -0.4575 -0.7701
vn -0.3545 -0.7051 -0.6141
vn 0.3545 -0.7051 -0.6141
vn -0.4446 -0.4575 -0.7701
vn -0.8892 -0.4575 0.0000
vn -0.7091 -0.7051 0.0000
vn -0.3545 -0.7051 -0.6141
vn -0.8892 -0.4575 0.0000
vn -0.4446 -0.4575 0.7701
vn -0.3545 -0.7051 0.6141
vn -0.7091 -0.7051 0.0000
vn -0.4446 -0.4575 0.7701
vn 0.4446 -0.4575 0.7701
vn 0.3545 -0.7051 0.6141
vn -0.3545 -0.7051 0.6141
vn 0.4446 -0.4575 0.7701
vn 0.8892 -0.4575 0.0000
vn 0.7091 -0.7051 0.0000
vn 0.3545 -0.7051 0.6141
vn 0.7091 -0.7051 0.0000
vn 0.3545 -0.7051 -0.6141
vn 0.4279 -0.5174 -0.7411
vn 0.8557 -0.5174 0.0000
vn 0.3545 -0.7051 -0.6141
vn -0.3545 -0.7051 -0.6141
vn -0.4279 -0.5174 -0.7411
vn 0.4279 -0.5174 -0.7411
vn -0.3545 -0.7051 -0.6141
vn -0.7091 -0.7051 0.0000
vn -0.8557 -0.5174 0.0000
vn -0.4279 -0.5174 -0.7411
vn -0.7091 -0.7051 0.0000
vn -0.3545 -0.7051 0.6141
vn -0.4279 -0.5174 0.7411
vn -0.8557 -0.5174 0.0000
vn -0.3545 -0.7051 0.6141
vn 0.3545 -0.7051 0.6141
vn 0.4279 -0.5174 0.7411
vn -0.4279 -0.5174 0.7411
vn 0.3545 -0.7051 0.6141
vn 0.7091 -0.7051 0.0000
vn 0.8557 -0.5174 0.0000
vn 0.4279 -0.5174 0.7411
vn 0.8557 -0.5174 0.0000
vn 0.4279 -0.5174 -0.7411
vn 0.4530 0.4234 -0.7846
vn 0.9059 0.4234 -0.0000
vn 0.4279 -0.5174 -0.7411
vn -0.4279 -0.5174 -0.7411
vn -0.4530 0.4234 -0.7846
vn 0.4530 0.4234 -0.7846
vn -0.4279 -0.5174 -0.7411
vn -0.8557 -0.5174 0.0000
vn -0.9059 0.4234 -0.0000
vn -0.4530 0.4234 -0.7846
vn -0.8557 -0.5174 0.0000
vn -0.4279 -0.5174 0.7411
vn -0.4530 0.4234 0.7846
vn -0.9059 0.4234 -0.0000
vn -0.4279 -0.5174 0.7411
vn 0.4279 -0.5174 0.7411
vn 0.4530 0.4234 0.7846
vn -0.4530 0.4234 0.7846
vn 0.4279 -0.5174 0.7411
vn 0.8557 -0.5174 0.0000
vn 0.9059 0.4234 -0.0000
vn 0.4530 0.4234 0.7846
vn 0.9059 0.4234 -0.0000
vn 0.4530 0.4234 -0.7846
vn 0.2716 0.8396 -0.4704
vn 0.5431 0.8396 -0.0000
vn 0.4530 0.4234 -0.7846
vn -0.4530 0.4234 -0.7846
vn -0.2716 0.8396 -0.4704
vn 0.2716 0.8396 -0.4704
vn -0.4530 0.4234 -0.7846
vn -0.9059 0.4234 -0.0000
vn -0.5431 0.8396 -0.0000
vn -0.2716 0.8396 -0.4704
vn -0.9059 0.4234 -0.0000
vn -0.4530 0.4234 0.7846
vn -0.2716 0.8396 0.4704
vn -0.5431 0.8396 -0.0000
vn -0.4530 0.4234 0.7846
vn 0.4530 0.4234 0.7846
vn 0.2716 0.8396 0.4704
vn -0.2716 0.8396 0.4704
vn 0.4530 0.4234 0.7846
vn 0.9059 0.4234 -0.0000
vn 0.5431 0.8396 -0.0000
vn 0.2716 0.8396 0.4704
vn 0.0000 1.0000 -0.0000
vn 0.0000 1.0000 -0.0000
vn 0.0000 1.0000 -0.0000
vn 0.0000 1.0000 -0.0000
vn 0.0000 1.0000 -0.0000
vn 0.0000 1.0000 -0.0000
# 150 vertex normals

vt 0.8460 0.0024 0.5640
vt 1.0025 0.9377 0.5084
vt 0.8460 0.9377 0.5640
vt 1.0025 0.0024 0.5084
vt 0.1896 0.9377 0.5084
vt 0.1896 0.0024 0.5084
vt 0.3460 0.9377 0.5640
vt 0.3460 0.0024 0.5640
vt 0.5025 0.9377 0.5084
vt 0.5025 0.0024 0.5084
vt 0.6896 0.9377 0.5084
vt 0.6896 0.0024 0.5084
vt 1.0025 0.9507 0.7445
vt 0.8460 0.9507 0.8259
vt 0.1896 0.9507 0.7445
vt 0.3460 0.9507 0.8259
vt 0.5025 0.9507 0.7445
vt 0.6896 0.9507 0.7445
vt 1.0025 0.9735 0.7445
vt 0.8460 0.9735 0.8259
vt 0.1896 0.9735 0.7445
vt 0.3460 0.9735 0.8259
vt 0.5025 0.9735 0.7445
vt 0.6896 0.9735 0.7445
vt 1.0025 0.9861 1.0398
vt 0.8460 0.9861 1.1535
vt 0.1906 0.9845 1.0398
vt 0.3460 0.9861 1.1535
vt 0.5025 0.9861 1.0398
vt 0.6896 0.9861 1.0398
vt 1.0018 0.9947 1.0398
vt 0.8454 0.9947 1.1535
vt 0.1906 0.9945 1.0398
vt 0.3454 0.9947 1.1535
vt 0.5018 0.9947 1.0398
vt 0.6890 0.9947 1.0398
vt 1.0018 0.9987 0.5798
vt 0.8454 0.9987 0.6432
vt 0.1906 0.9985 0.5798
vt 0.3454 0.9987 0.6432
vt 0.5018 0.9987 0.5798
vt 0.6890 0.9987 0.5798
vt 0.0025 0.0024 0.5084
vt 0.0025 0.9381 0.5084
vt 0.0024 0.9510 0.7445
vt 0.0028 0.9725 0.7445
vt 0.0024 0.9850 1.0398
vt 0.0025 0.9945 1.0398
vt 0.0025 0.9985 0.5798
vt 0.7640 1.0000 -0.0407
vt 0.3683 1.0013 -0.6104
vt 0.1986 1.0014 -0.5819
# 52 texture coords

g plastic_barrier_pole
s 8
f 5/5/5 6/8/6 12/6/7 11/7/8 
f 6/47/9 7/10/10 13/9/11 12/48/12 
f 7/10/13 8/12/14 14/11/15 13/9/16 
f 8/12/17 9/14/18 15/13/19 14/11/20 
f 9/14/21 10/16/22 16/15/23 15/13/24 
f 10/16/25 5/5/26 11/7/27 16/15/28 
f 11/7/29 12/6/30 18/17/31 17/18/32 
f 12/48/33 13/9/34 19/19/35 18/49/36 
f 13/9/37 14/11/38 20/20/39 19/19/40 
f 14/11/41 15/13/42 21/21/43 20/20/44 
f 15/13/45 16/15/46 22/22/47 21/21/48 
f 16/15/49 11/7/50 17/18/51 22/22/52 
f 17/18/53 18/17/54 24/23/55 23/24/56 
f 18/49/57 19/19/58 25/25/59 24/50/60 
f 19/19/61 20/20/62 26/26/63 25/25/64 
f 20/20/65 21/21/66 27/27/67 26/26/68 
f 21/21/69 22/22/70 28/28/71 27/27/72 
f 22/22/73 17/18/74 23/24/75 28/28/76 
f 23/24/77 24/23/78 30/29/79 29/30/80 
f 24/50/81 25/25/82 31/31/83 30/51/84 
f 25/25/85 26/26/86 32/32/87 31/31/88 
f 26/26/89 27/27/90 33/33/91 32/32/92 
f 27/27/93 28/28/94 34/34/95 33/33/96 
f 28/28/97 23/24/98 29/30/99 34/34/100 
f 29/30/101 30/29/102 36/35/103 35/36/104 
f 30/51/105 31/31/106 37/37/107 36/52/108 
f 31/31/109 32/32/110 38/38/111 37/37/112 
f 32/32/113 33/33/114 39/39/115 38/38/116 
f 33/33/117 34/34/118 40/40/119 39/39/120 
f 34/34/121 29/30/122 35/36/123 40/40/124 
f 35/36/125 36/35/126 42/41/127 41/42/128 
f 36/52/129 37/37/130 43/43/131 42/53/132 
f 37/37/133 38/38/134 44/44/135 43/43/136 
f 38/38/137 39/39/138 45/45/139 44/44/140 
f 39/39/141 40/40/142 46/46/143 45/45/144 
f 40/40/145 35/36/146 41/42/147 46/46/148 
s 1
f 46/46/149 41/42/150 42/41/151 43/54/152 44/55/153 45/56/154 
# 37 polygons

