#
# object raceTrackCurb
#

v  0.0000 0.0000 27.7136
v  1.6894 0.1006 27.4889
v  0.0000 0.0000 13.8568
v  1.7470 0.1006 13.8568
v  6.3810 0.3488 13.8568
v  7.1584 0.0000 13.8568
v  0.0000 0.0000 -0.0000
v  1.7470 0.1006 -0.0000
v  10.8146 0.9141 -0.0000
v  12.6333 0.0000 -0.0000
v  1.7470 0.0000 27.7136
v  1.7470 0.1006 13.8568
v  1.6894 0.1006 27.4889
# 13 vertices

vn -0.0575 0.9983 -0.0000
vn -0.0543 0.9978 0.0374
vn 0.2137 0.9544 0.2084
vn -0.0588 0.9983 0.0037
vn -0.0588 0.9983 0.0037
vn 0.2137 0.9544 0.2084
vn 0.1442 0.9867 0.0746
vn -0.0575 0.9983 -0.0000
vn -0.0575 0.9983 -0.0000
vn -0.0588 0.9983 0.0037
vn -0.0734 0.9973 -0.0000
vn -0.0734 0.9973 -0.0000
vn -0.0588 0.9983 0.0037
vn 0.1442 0.9867 0.0746
vn 0.2377 0.9649 0.1114
vn 0.2377 0.9649 0.1114
vn 0.1442 0.9867 0.0746
vn 0.4048 0.9006 0.1583
vn 0.4404 0.8803 0.1765
vn -0.0535 0.9986 -0.0002
vn -0.0535 0.9986 -0.0002
vn 0.1442 0.9867 0.0746
vn 0.1442 0.9867 0.0746
vn 0.2137 0.9544 0.2084
vn 0.4048 0.9006 0.1583
vn -0.0543 0.9978 0.0374
vn 0.2043 0.9120 0.3557
vn 0.2137 0.9544 0.2084
vn 0.2043 0.9120 0.3557
vn 0.4048 0.9006 0.1583
vn 0.2137 0.9544 0.2084
# 31 vertex normals

vt 0.4996 0.0007 0.0000
vt 0.5907 0.0375 0.0000
vt 0.4997 0.5044 0.0000
vt 0.5916 0.5044 0.0000
vt 0.7478 0.5041 0.0000
vt 0.7998 0.5041 0.0000
vt 0.4996 0.9965 0.0000
vt 0.5916 0.9965 0.0000
vt 0.9382 0.9965 0.0000
vt 0.9996 0.9965 0.0000
vt 0.5904 0.0007 0.0000
# 11 texture coords

g raceTrackCurb
s 1
f 3/3/1 1/1/2 2/2/3 4/4/4 
f 4/4/5 2/2/6 5/5/7 
f 7/7/8 3/3/9 4/4/10 8/8/11 
f 8/8/12 4/4/13 5/5/14 9/9/15 
f 9/9/16 5/5/17 6/6/18 10/10/19 
f 12/4/20 13/2/21 5/5/22 
f 5/5/23 2/2/24 6/6/25 
f 1/1/26 11/11/27 2/2/28 
f 11/11/29 6/6/30 2/2/31 
# 4 polygons - 5 triangles

